<?xml version="1.0" encoding="UTF-8"?>
<svg width="460.06348" height="475.80481" xmlns="http://www.w3.org/2000/svg" xmlns:svg="http://www.w3.org/2000/svg">
 <metadata id="metadata7">image/svg+xml</metadata>
 <g>
  <title>Layer 1</title>
  <g id="layer1">
   <path d="m146.45589,15.26022c-13.33695,-0.44845 -27.26696,2.70432 -40.24881,8.15677c-6.94294,2.91608 -13.62384,6.49655 -19.83977,10.56519m12.43825,-18.01972c-11.0585,4.99411 -20.51691,12.10123 -28.29349,20.73221c-7.25915,8.05673 -13.0498,17.44376 -17.2838,27.6926m-0.00064,-7.75913c-6.95259,8.57608 -11.92812,18.081 -15.06148,28.05283c-3.13337,9.97183 -4.41571,20.41669 -4.04727,30.79422c0.0006,0.01678 0.00101,0.03369 0.002,0.05051m6.08731,-10.90451c-0.35783,5.14798 -0.49367,10.3298 -0.3444,15.55163c0.19598,6.85605 0.64025,13.36118 1.41894,19.62464c0.77869,6.26345 1.89006,12.28399 3.38423,18.14581m-10.18358,-21.21939c0.63601,5.79376 1.8936,11.41846 3.66196,16.85513c4.03913,12.418 10.71887,23.85391 19.20352,34.22919c0.77051,0.9422 1.55613,1.87567 2.35636,2.80032m-7.66643,-6.4082c1.48549,3.52353 3.19269,6.86111 5.09979,10.0343c6.45769,10.74469 15.20352,19.61148 25.5054,27.29205c4.04435,3.01526 8.32875,5.84696 12.80561,8.53876m-21.59659,-7.62726c0.6375,0.8028 1.28876,1.60208 1.95346,2.39801c8.26036,9.89148 18.60466,19.26639 30.3125,28.4429c6.29294,4.93232 12.97725,9.80707 19.91472,14.67334m-10.17774,-15.24054c8.47741,7.32813 16.69767,15.2265 24.65308,23.83478c7.95538,8.60828 15.64539,17.92664 23.13364,28.06268m-12.98362,-14.47619c8.64072,7.56573 16.90406,14.79187 24.92997,21.94385c4.81442,4.29022 9.54486,8.55462 14.23556,12.85894m-6.1329,-10.93719c6.17096,6.76349 12.70071,13.50665 19.44836,20.55194c6.74765,7.04529 13.71338,14.39148 20.73459,22.42481m-13.9548,-9.59522c6.30084,6.51648 12.10284,13.13538 17.58142,19.95837c5.47854,6.823 10.63238,13.84974 15.69162,21.19605c1.50644,-2.43683 3.03882,-4.8429 4.60394,-7.21698m-12.85547,-2.47748c1.20343,1.57623 2.38065,3.14966 3.53324,4.72156c5.19351,-7.08539 10.15817,-14.21393 15.11331,-21.26843c4.95515,-7.05451 9.89961,-14.03565 15.00764,-20.8537m-12.0332,20.11352c7.07184,-8.02624 14.08264,-15.12866 21.28888,-21.35052c7.20627,-6.22187 14.60675,-11.56269 22.39752,-16.07251m-5.4234,1.31543c4.22464,-4.21875 8.57584,-8.35608 12.9469,-12.32941c11.24389,-10.22089 22.5899,-19.3197 32.51547,-26.26984m-8.49905,1.94831c7.64508,-7.20709 14.89416,-13.883 21.73199,-20.35553c6.83789,-6.47266 13.26456,-12.74195 19.25427,-19.0896c1.06278,-1.12622 2.11176,-2.25482 3.14673,-3.38721m-8.61673,12.08508c2.11112,-1.87439 4.23899,-3.75952 6.37586,-5.65222c11.67379,-10.3399 23.59622,-20.87942 34.66043,-31.31412m-8.16034,8.7659c11.47796,-11.3699 21.07483,-24.76254 28.85327,-39.92773c0.67462,-1.31531 1.33539,-2.64426 1.98233,-3.98691m-8.26038,9.01239c1.61844,-2.30011 3.18058,-4.62548 4.68326,-6.97522c6.6695,-10.42941 12.16138,-21.35177 16.22016,-32.63275c0.36755,-1.02151 0.72338,-2.04581 1.06738,-3.07266m-5.48358,8.32529c1.13568,-2.97953 2.20349,-6.04181 3.20108,-9.19056c3.97326,-12.54013 6.80172,-26.4461 8.56723,-42.01852c0.43243,-3.81445 0.73242,-7.60513 0.90844,-11.36008m-12.03329,26.83072c0.19943,-2.2716 0.35208,-4.56573 0.45987,-6.88513c0.81421,-17.52292 -2.30445,-33.81918 -7.35907,-48.80048m7.67492,15.2331c-4.94769,-17.05625 -14.50854,-32.55042 -27.01409,-45.85788c-0.26709,-0.28424 -0.53553,-0.56748 -0.8053,-0.8497m12.86856,11.02679c-2.96866,-3.90985 -6.05179,-7.48535 -9.25003,-10.74374c-8.64044,-8.80274 -18.12293,-15.29151 -28.43579,-19.77271m10.75006,9.75919c-5.27844,-3.62372 -10.88806,-6.92887 -16.7695,-9.90122c-10.13349,-5.12127 -21.07419,-9.24426 -32.51639,-12.38559m8.97546,7.0889c-8.06512,-1.94672 -16.21417,-2.96295 -24.39788,-2.98471c-8.25031,-0.022 -16.09241,0.96915 -23.51795,2.81705m15.76776,-11.59479c-8.27398,1.4451 -16.56424,3.85095 -24.58514,7.30749c-8.02091,3.45655 -15.77466,7.96152 -23.008,13.58362c-1.67914,1.30512 -3.33032,2.67044 -4.95044,4.0968m14.2312,-3.45935c-2.06866,1.12732 -4.09338,2.32614 -6.0733,3.59351c-17.34512,11.10275 -31.24828,27.45526 -41.20732,47.17795c-0.31461,-0.53943 -0.63519,-1.0755 -0.96173,-1.60822m14.32879,-12.76727c-3.42358,4.81827 -6.46005,10.07678 -9.03036,15.66962c-5.40756,-12.09086 -12.94882,-22.70295 -21.8876,-31.86283m8.10901,12.99634c-8.23414,-9.67837 -17.65723,-18.47565 -28.42624,-25.66589c-8.21991,-5.48828 -17.22043,-10.042 -27.0915,-13.3396m13.98667,7.75644c-14.10813,-6.37095 -29.38214,-11.3086 -44.8888,-13.65043c0.00199,-0.005 0.00498,-0.009 0.00699,-0.014c-3.73236,-0.56482 -7.38122,-0.96628 -10.93676,-1.20404m5.09216,-7.17374c-15.02806,-0.5582 -28.55757,3.04828 -40.62077,9.41913c-2.16897,1.14544 -4.2898,2.38134 -6.36203,3.70062m12.06051,4.90124c-1.45645,0.6323 -2.89023,1.28293 -4.30104,1.95243c-13.01787,6.17782 -24.08887,13.97918 -32.92393,23.7727c-3.27704,3.63254 -6.24569,7.538 -8.8892,11.73401m18.46041,-19.42962c-13.74311,14.63656 -24.14249,32.97155 -28.702,53.8095m0.66802,-10.97946c-3.71703,11.36661 -6.35649,23.98029 -7.36766,37.53134c-0.48803,6.54004 -0.76812,12.92734 -0.81182,19.16965m-1.25708,-20.98382c-0.0245,13.49844 1.94168,26.22183 5.2972,38.17855c1.39097,4.95649 3.02426,9.78397 4.86702,14.49143m1.13325,-16.35568c4.21605,11.74032 8.93514,22.95199 14.53095,34.00567c3.4292,6.77387 7.17991,13.49048 11.31942,20.2536m-17.59812,1.04135c5.22506,8.51886 11.49424,16.45609 18.59823,24.10206c5.57495,6.0003 11.66507,11.82064 18.16695,17.6138m-10.51895,-26.43274c6.27337,6.73584 13.59896,13.919 21.52858,21.36358c9.16018,8.59986 19.13437,17.55731 29.03926,26.37525m-8.46134,0.427c12.72748,10.49017 23.74396,21.1206 33.2334,31.9964m-0.57034,-4.16065c7.63995,6.5954 15.0712,13.22046 22.46008,20.07099c5.5455,5.14141 11.06815,10.41034 16.66162,15.90021m-18.89532,-25.87995c7.80075,7.66748 15.9237,15.91773 24.31369,25.01111c8.38995,9.09338 17.04629,19.02844 25.92645,30.1134m-13.3046,-2.32489c8.48087,11.12879 18.50687,22.15582 29.18717,33.58862c2.96722,-3.90618 6.05264,-7.77423 9.22378,-11.59594m-11.53595,4.4649c4.69882,-8.14953 10.1171,-15.32263 16.01589,-21.83941c5.89886,-6.51679 12.27923,-12.37586 18.93878,-17.84565m-3.48737,13.00275c12.62598,-15.71655 26.5762,-29.82532 40.46796,-43.04333c1.73651,-1.65229 3.47244,-3.29053 5.20538,-4.91614m-15.84616,9.03558c2.67346,-2.6889 5.42856,-5.41089 8.23477,-8.14844c6.31174,-6.15704 12.8794,-12.39001 19.38843,-18.5285c6.50903,-6.13843 12.95941,-12.18243 19.07904,-17.99927m-16.87109,11.38562c6.53052,-6.55719 13.52972,-12.78223 20.58484,-18.84814c7.05505,-6.06586 14.16595,-11.97254 20.98047,-17.87592c3.37994,-2.92804 6.68792,-5.85504 9.88641,-8.7984m-14.25839,15.75006c0.64975,-0.56506 1.29959,-1.13477 1.94937,-1.70892c6.91309,-6.10895 13.81714,-12.72156 20.55341,-19.68335c6.73632,-6.96183 13.30444,-14.2732 19.55969,-21.83554m-10.11511,8.2142c8.7835,-9.91388 16.6997,-19.99802 23.45068,-30.57098c2.04175,-3.19767 3.97693,-6.43985 5.79779,-9.73481m-10.76111,6.86209c7.05036,-11.2456 12.78046,-22.72067 17.3628,-35.04925c1.97528,-5.31445 3.73883,-10.78668 5.32403,-16.46951m-1.97894,13.81881c3.29925,-12.13641 4.30102,-25.08636 2.31647,-39.29171c-0.47263,-3.38315 -1.15149,-6.73624 -2.0279,-10.05497m4.43131,15.70053c0.09906,-1.19155 0.1755,-2.39144 0.22922,-3.60022c0.39935,-8.98465 -0.80506,-17.75949 -3.22504,-26.32965c-2.41998,-8.57019 -6.05972,-16.93441 -10.59888,-25.08493m8.31653,9.22138c-5.84399,-16.79642 -14.86432,-30.59162 -26.8255,-41.76203c-0.99585,-0.93005 -2.01209,-1.84176 -3.04852,-2.73529m16.0531,13.31314c-1.66956,-1.90948 -3.41584,-3.79647 -5.23297,-5.65344c-9.54071,-9.74981 -21.03595,-18.66562 -33.62616,-25.71176c-3.00849,-1.68368 -6.07932,-3.26089 -9.2002,-4.71799m6.51282,4.21c-2.07855,-1.11173 -4.16413,-2.11927 -6.25763,-3.0235c-13.42481,-5.79843 -27.16379,-7.35447 -41.50378,-4.86786c-3.31781,0.57531 -6.59607,1.35458 -9.84003,2.31527m5.77429,6.77176c-1.16681,-0.01748 -2.33527,-0.01739 -3.50507,0.0008c-20.93435,0.32602 -39.483,6.4537 -53.93902,17.45886m16.936,-16.08243c-5.40933,2.30954 -10.65512,5.05747 -15.6874,8.18591c-9.44062,5.86896 -18.12928,13.07761 -25.75087,21.24488m14.07234,-5.40778c-10.9292,9.84232 -18.90062,21.60187 -24.17339,35.13171c-2.61096,-5.86965 -5.7298,-11.30957 -9.39163,-16.19787m3.53101,6.54834c-9.29676,-17.24295 -20.35035,-29.59845 -33.04749,-37.89798c-1.77097,-1.15762 -3.57346,-2.2359 -5.40677,-3.237m18.84351,3.26837c-2.25757,-1.82721 -4.63352,-3.5217 -7.12271,-5.08142c-7.81537,-4.89703 -16.74433,-8.46668 -26.64798,-10.63416c-9.90366,-2.16745 -20.77997,-2.93231 -32.54023,-2.20501m11.24311,1.82947c-7.65122,-1.80912 -15.65476,-2.91626 -23.71692,-3.18213c0.00201,-0.00101 0.005,-0.00202 0.00699,-0.00302c-9.90717,-0.32847 -19.21797,0.63577 -27.4568,2.794m30.07713,-7.53964c-13.62921,0.24713 -26.22618,3.88721 -38.09822,10.07458c-6.51259,3.3942 -12.80266,7.56031 -18.90584,12.38132m8.77585,-3.60138c-9.68285,5.18408 -18.85936,11.62668 -26.93975,19.02515c-4.49218,4.11307 -8.64637,8.52118 -12.36331,13.16962m11.38773,-9.73633c-7.49816,7.34411 -13.36826,16.40075 -17.48558,26.50293c-4.11731,10.10217 -6.48065,21.2561 -6.95441,32.7572m-1.13023,-24.18256c-3.22502,9.61817 -4.79622,19.89096 -4.70609,30.58725c0.11219,13.31116 1.83275,25.65207 4.57003,37.17493m-0.30066,-6.89465c0.43553,7.74969 1.7891,15.06439 3.81692,22.07312c3.21721,11.1196 8.13094,21.46661 14.07306,31.47918m-7.74544,-15.59033c2.2439,5.30078 4.96793,10.49616 8.12647,15.62451c7.00676,11.37656 16.14644,22.41788 27.06212,33.61631c3.40779,3.49606 6.98933,7.00805 10.73457,10.55249m-10.09448,-10.36325c0.80028,0.89389 1.60913,1.79199 2.42611,2.69409c8.45701,9.33798 17.7909,19.12332 27.48345,29.02157c4.72085,4.82105 9.52569,9.66498 14.34799,14.46619m-11.68779,-18.03339c8.52324,6.74457 16.54225,14.22113 24.16863,22.21186c7.62634,7.99078 14.85913,16.49701 21.92648,25.15393m-18.46582,-8.13855c9.74048,8.79834 19.45749,16.86957 29.4798,24.91015c6.58499,5.2829 13.30438,10.55597 20.28949,16.06037m-15.82831,-17.57538c7.78415,7.3775 15.27655,14.96405 22.5571,22.93781c7.28057,7.97375 14.34817,16.33416 21.33151,25.2843m-6.01212,-9.79999c8.5683,10.88141 17.0831,22.03815 24.52606,33.8158c1.14328,-2.09613 2.28443,-4.17579 3.41956,-6.23853m-3.94183,-7.30969c1.25091,1.87854 2.54202,3.79095 3.86905,5.73584c4.81518,-7.86389 10.49142,-15.26856 16.66459,-22.39118c6.17313,-7.12262 12.84482,-13.96252 19.70972,-20.67315m-8.48465,20.61328c6.71466,-8.61499 13.74826,-16.63043 21.00909,-24.38745c7.2609,-7.75702 14.74921,-15.25482 22.37439,-22.7865c1.67606,-1.65546 3.35874,-3.31244 5.04706,-4.97376m-21.4313,11.90491c1.96176,-1.82538 3.9238,-3.68042 5.88019,-5.55688c6.25872,-6.00312 12.45849,-12.22193 18.42395,-18.41871c5.96551,-6.19677 11.69665,-12.3717 17.04074,-18.33471m-3.39374,8.78271c7.52865,-6.94208 14.19086,-13.00213 20.18143,-18.58899c5.99054,-5.58691 11.30975,-10.70074 16.11016,-15.69415c0.03681,-0.03833 0.07361,-0.0766 0.11029,-0.11481m-8.0913,6.69312c2.64807,-2.75403 5.34783,-5.50629 8.07046,-8.27368c10.35526,-10.52555 21.01038,-21.28476 30.61826,-33.07068m-13.60096,13.33828c6.78772,-6.30703 12.77689,-12.94848 18.08863,-19.86901c5.31164,-6.92051 9.94452,-14.12116 13.96911,-21.57859c2.54828,-4.72189 4.8516,-9.54745 6.92298,-14.47287m-10.97379,18.80078c6.44016,-10.32135 12.1525,-21.57275 16.99365,-33.77005c3.92539,-9.88995 7.27594,-20.41037 10.14335,-31.52185m-3.97583,11.58512c1.00134,-8.10233 1.8908,-16.95157 2.47833,-26.51871c0.87958,-14.32309 0.04214,-28.39154 -2.96704,-41.06918m7.74432,18.14993c-4.85602,-20.01291 -16.16217,-38.90176 -32.67599,-54.78626c-0.5589,-0.53762 -1.12381,-1.0718 -1.69468,-1.60253m0.58222,11.80554c-2.37888,-3.21753 -4.85986,-6.17331 -7.42999,-8.87616c-8.52717,-8.96762 -18.03992,-15.15457 -28.02015,-18.82584m13.55927,5.19098c-4.36206,-2.63391 -8.80695,-4.8663 -13.33063,-6.68661c-12.88684,-5.18552 -26.40677,-7.0315 -40.48065,-5.23597c-2.71973,0.34696 -5.41052,0.82401 -8.07269,1.42304m19.31659,-6.83786c-1.82032,-0.2146 -3.68772,-0.3483 -5.599,-0.40106c-10.39777,-0.28708 -21.35297,1.82641 -32.10511,5.6773c-10.75213,3.85089 -21.31308,9.44889 -31.06189,16.24775c-0.66238,0.46194 -1.32098,0.92944 -1.9757,1.40234m16.25308,-8.85239c-6.07581,2.76154 -11.73911,5.69629 -17.02155,8.82541c-14.33282,8.49011 -25.85719,18.42014 -35.10331,29.97714m13.64329,-9.34448c-6.08885,7.10227 -11.39702,15.09143 -15.76549,23.73624c-5.27884,-10.39835 -12.37805,-19.84067 -21.00305,-28.08585m7.10486,7.18613c-7.61627,-12.04416 -17.26483,-22.26831 -27.85196,-30.46582c-5.98859,-4.6369 -12.27762,-8.62469 -18.65088,-11.93469m8.87405,2.88251c-7.95837,-3.84986 -16.0578,-6.87513 -24.26559,-8.77491c-8.20779,-1.89978 -16.52283,-2.67733 -24.90701,-1.98925c0.00299,0.00201 0.00699,0.005 0.01019,0.00698c-4.60007,0.37861 -9.0712,1.18732 -13.41553,2.42597m7.7219,-1.05344c-12.80011,0.15409 -24.35617,3.10269 -34.44379,7.97373c-8.32188,4.01843 -15.63974,9.35324 -21.7847,15.56726m11.80301,-2.15088c-9.29748,4.98584 -17.11629,11.00775 -23.62099,17.92419c-8.39921,8.93094 -14.6006,19.35196 -18.91858,30.95404m4.58927,-19.00711c-4.91979,8.12848 -9.25424,16.69794 -12.81156,25.72187c-3.55729,9.02395 -6.33662,18.49929 -8.17446,28.47106m10.14114,-8.4642c-1.03783,5.80814 -1.52765,11.75574 -1.42781,17.76788c0.24365,14.67341 2.731,27.66242 6.97378,39.11042c0.97982,2.64374 2.0541,5.20541 3.21808,7.68661m-19.29846,-15.12155c0.74251,3.86145 1.68262,7.6279 2.80804,11.30313c3.84609,12.55979 9.84082,24.05332 17.65097,34.66397c1.56542,2.12674 3.20438,4.21802 4.91498,6.27512m-10.44372,-21.02185c0.88919,2.0733 1.84529,4.11615 2.86309,6.13415c5.90448,11.70688 13.88593,22.56519 22.96718,33.72241c4.52437,5.55866 9.3212,11.19422 14.2525,17.07483m-9.69722,-7.78872c7.32409,9.53949 16.42621,18.0166 26.68111,26.13885c5.03897,3.99103 10.35416,7.89874 15.85517,11.8244m1.01545,-16.79986c8.15622,6.53857 16.2038,13.91052 24.12461,21.87445c7.92077,7.96393 15.71438,16.52093 23.41668,25.27972m-12.83682,-5.02905c7.9035,7.17175 15.68716,13.95148 23.43713,20.65601c4.98539,4.3128 9.95771,8.59576 14.95063,12.94714m-8.80701,-13.88452c7.53336,6.91089 15.0827,14.74927 22.70731,23.61798c7.62463,8.86871 15.32357,18.76709 23.19528,29.80121m-20.53913,-13.9914c9.91187,12.72632 20.79737,25.28406 31.21625,38.95099m-15.86694,-12.54864c2.70471,3.7713 5.46817,7.65289 8.26254,11.638c9.91339,-15.54029 21.58638,-29.70667 33.32768,-43.45258m-6.49337,23.86652c11.38378,-12.26575 22.31686,-25.78205 33.73181,-39.1178m-4.31305,-1.91644c7.29614,-7.80933 14.48382,-14.57599 21.73941,-20.73499c8.23858,-6.99347 16.5657,-13.20416 25.17117,-19.17999m-13.46057,9.63196c8.0358,-6.50824 15.49939,-13.00782 22.70999,-19.4054c7.21066,-6.39758 14.16831,-12.69318 21.11701,-18.8266m-16.06281,15.7898c8.69705,-8.21381 16.81479,-16.44391 24.18338,-25.09345c5.05145,-5.92969 9.7514,-12.05438 14.04852,-18.48266m-4.44745,13.10656c8.73267,-7.84338 16.77478,-17.29864 23.8263,-27.85595c7.05157,-10.55735 13.11584,-22.21732 17.89218,-34.71164c0.00088,-0.00202 0.00198,-0.00501 0.00302,-0.00699c0.00049,-0.00101 0.00098,-0.00302 0.00195,-0.004m-11.93448,27.76724c3.73078,-5.52878 7.51102,-10.99484 11.21085,-16.49661c6.30508,-9.37579 12.36826,-18.85813 17.69971,-28.85806m-2.2175,10.7387c2.47134,-5.22998 4.4476,-10.61248 5.93289,-16.18142c3.34717,-12.55036 4.19226,-26.04197 2.52588,-40.89481c-0.15356,-1.36841 -0.33441,-2.73172 -0.54163,-4.08957m2.6601,9.65024c0.46731,-3.60974 0.68945,-7.28272 0.66168,-11.01971c-0.1015,-13.65912 -4.33093,-26.45978 -11.31409,-37.85746m7.29279,11.99244c-5.77539,-16.51276 -14.54486,-32.60962 -27.05447,-46.81693m4.11825,9.27972c-4.01855,-5.0043 -8.13849,-9.77362 -12.37701,-14.16925c-9.05475,-9.39044 -18.65509,-17.08261 -28.87308,-21.71347c-2.11209,-0.95721 -4.25034,-1.78323 -6.41501,-2.46499m13.60132,8.52307c-3.11786,-1.44241 -6.24835,-2.82547 -9.38568,-4.12698c-12.59326,-5.22431 -25.31275,-9.14536 -37.67468,-10.29285m12.32574,5.54364c-4.8548,-0.41434 -9.79956,-0.6113 -14.80225,-0.53684c-13.75561,0.20472 -26.71789,2.48441 -38.30398,7.13987m8.93838,-5.4852c-12.11654,2.05966 -23.31079,6.43072 -33.16922,12.03311c-8.49826,4.82941 -16.00372,10.58075 -22.24466,16.5766m19.37055,-7.50516c-11.91141,10.95502 -22.2303,23.11423 -29.56584,36.64386c-2.4451,-5.24399 -5.25803,-10.33173 -8.38657,-15.18866m2.66315,12.1033c-0.33469,0.68323 -0.66416,1.36609 -0.98844,2.04856c-4.41116,-8.25412 -10.12136,-16.58213 -17.07794,-24.45722c-6.95654,-7.87506 -15.15817,-15.30011 -24.56357,-21.77865m24.27005,12.21694c-5.182,-4.11904 -10.66293,-7.9967 -16.47189,-11.45617c-11.75439,-7.00022 -24.83667,-12.30362 -39.56784,-14.37451m12.08511,6.86322c-11.57641,-4.11896 -23.58303,-6.92392 -35.51083,-7.98609c0.00299,-0.00302 0.00598,-0.005 0.009,-0.00799c-8.41873,-0.7519 -16.29797,-0.59485 -23.51739,0.40341m-81.44857,318.61105c-8.0695,3.09491 -14.06184,9.17487 -17.5496,16.49738c-3.73284,7.83697 -4.5676,17.11413 -2.04646,25.81225c0.36743,1.26764 0.76245,2.48352 1.18364,3.65045m-6.81479,-24.72912c0.12286,3.39233 0.89952,6.90625 2.39007,10.40558c1.81751,4.26684 4.09587,8.04943 6.75292,11.41925c2.65704,3.36975 5.69465,6.32989 9.06256,9.00061c4.51597,3.58111 9.62803,6.6455 15.23532,9.5072m-14.2022,-9.14801c5.12024,3.2381 11.32981,5.85956 18.41936,8.4541c8.47574,3.10187 18.22405,6.17908 28.83647,10.15112c0.95366,0.35694 1.91423,0.72095 2.88135,1.09272m-4.47899,6.21582c2.65314,0.71234 5.29563,1.47625 7.91971,2.31066c9.24188,2.93885 18.24777,6.77924 26.75676,12.15778c1.0686,-9.39386 2.9372,-18.18085 5.21341,-26.75507m-7.73061,11.63849c2.12461,-7.28021 4.67379,-13.68939 7.33528,-19.50537c3.80504,-8.31488 7.83948,-15.4151 11.14335,-22.00604c0.51309,-1.0235 1.00845,-2.03461 1.48242,-3.03564m0.26617,7.45404c1.58417,-3.7912 3.17594,-7.38404 4.67224,-10.84565c3.47211,-8.03234 6.42258,-15.37548 7.63977,-22.71466c0.96003,-5.78845 0.84848,-11.56512 -0.90689,-17.56811m-2.22888,24.88031c0.24316,-6.82764 -0.5834,-13.72339 -3.17694,-20.92236c-2.96188,-8.22144 -8.51242,-14.1623 -15.04585,-17.03583c-2.19796,-0.96674 -4.50516,-1.586 -6.85607,-1.82697m12.04602,-1.17975c-1.87452,-1.50122 -3.90097,-2.73309 -6.03633,-3.68408c-7.62903,-3.39752 -16.64552,-3.23718 -25.12346,1.21173c-8.58476,4.50501 -14.95668,12.56653 -18.24452,22.09888m10.02304,-19.3941c-8.0726,6.55279 -12.52263,15.64111 -12.62254,25.08551c-4.31505,-4.19263 -9.58081,-7.08484 -15.16338,-8.28809c-5.58255,-1.20331 -11.48149,-0.72278 -17.03941,1.85095c0.00099,0.00018 0.002,0.00031 0.00299,0.00049m17.63065,3.39313c-4.73879,-0.25074 -9.62827,0.49084 -14.35013,2.36065c-0.00014,-0.00036 -0.00029,-0.00073 -0.00046,-0.00097c-8.44293,3.3421 -14.7465,9.64929 -18.12758,17.10778c-2.95729,6.52363 -3.67839,13.92859 -1.6558,20.96174m17.82261,-43.56257c-7.20877,3.58826 -13.01671,9.88031 -16.43438,17.292c-3.58391,7.77209 -4.55582,16.77417 -2.00415,25.16906c0.49905,1.64191 1.05484,3.19281 1.66593,4.66059m-2.41363,-11.82526c0.40794,2.24036 1.0554,4.48523 1.95586,6.70136c3.47311,8.54772 8.37616,14.80706 14.34359,19.76507c5.96742,4.95807 12.99048,8.63458 20.65059,12.11902c2.85008,1.29651 5.78841,2.5661 8.79372,3.86365m-14.81612,-5.36078c2.54776,1.24823 5.20542,2.40942 7.94458,3.53747c7.50501,3.09082 15.63457,5.93207 23.70906,9.64618c7.13739,3.28308 14.2419,7.24604 20.65393,12.69104m-15.10032,-5.42334c4.75068,2.51526 9.77102,5.40729 14.98726,8.88098c2.30354,-10.40863 6.66423,-19.6314 11.54969,-27.98114c3.31285,-5.66204 6.87461,-10.92407 10.25791,-15.90441m-3.33469,4.00402c3.2692,-8.10553 6.60126,-15.48205 9.1901,-22.56286c2.8959,-7.92053 4.87905,-15.47138 4.82968,-23.17169c-0.03101,-4.83167 -0.85984,-9.71863 -2.86209,-14.79169m-1.8577,18.69031c0.07889,-0.49274 0.1513,-0.98658 0.21704,-1.48169c1.02011,-7.68299 0.41214,-15.63715 -2.92056,-24.4079c-3.38446,-8.9071 -9.76807,-15.83283 -17.38845,-20.00836c-5.27131,-2.88843 -11.13253,-4.45978 -16.99646,-4.4925m26.70217,14.82874c-6.81014,-2.2749 -14.80735,-2.33374 -22.61145,0.34607c-6.3221,2.1709 -11.64464,5.83948 -15.60999,10.3164c-3.96534,4.47687 -6.5771,9.76117 -7.5087,15.13648c-0.96502,-0.93219 -1.96856,-1.82025 -3.00582,-2.66211m2.58404,-13.44244c-1.84944,3.86895 -3.03245,8.11358 -3.44141,12.4552c-4.81648,-4.36182 -10.9478,-7.37824 -17.68507,-8.77851c-6.73729,-1.40027 -14.07262,-1.18005 -21.39441,0.89789c-0.006,-0.00195 -0.01239,-0.00397 -0.01869,-0.00598c-6.55612,1.85919 -12.30393,4.96753 -17.04639,8.79077m11.90944,-6.62042c-8.25442,3.98657 -14.20024,10.73346 -17.14252,18.71753c-2.98735,8.10638 -2.88156,17.46094 1.139,26.48443c0.60287,1.35303 1.23936,2.65552 1.90811,3.91126m-4.37551,-8.3501c0.35074,2.76636 1.10003,5.49695 2.2788,8.12549c1.86889,4.16736 4.20926,7.63708 6.94237,10.56781c2.73312,2.93079 5.86077,5.32104 9.3401,7.29822c6.48483,3.68512 14.19533,5.93219 22.93686,7.48913m-9.88874,-6.13397c4.65616,2.71259 9.63547,4.87909 14.84853,6.7959c8.06403,2.96503 16.67813,5.32263 25.57968,8.23047c6.98294,2.28113 14.1435,4.90314 21.41829,8.47467m-14.8309,-2.10034c7.53825,3.37341 15.04263,7.15612 22.283,11.98053c1.73351,-10.78492 4.63872,-20.64948 7.8031,-29.74897c0.65532,-1.88446 1.32149,-3.73663 1.99018,-5.55853m-5.54265,13.77112c1.04129,-2.90198 2.16061,-5.75824 3.32124,-8.5777c3.73038,-9.06189 7.88188,-17.74353 11.28911,-26.33746c3.2641,-8.23309 5.85065,-16.37378 6.77249,-24.74158m4.73181,14.02661c1.75714,-4.67657 3.09854,-9.20849 3.81,-13.70929c1.19858,-7.58239 0.61017,-15.09637 -2.81518,-22.87414c-2.55402,-5.79926 -6.77515,-10.34308 -11.92045,-13.34821m0.00303,6.42053c-3.59879,-5.49377 -8.54764,-9.64343 -14.0584,-12.12427c-7.33368,-3.30157 -15.68025,-3.64617 -23.03174,-0.27642c-5.51138,2.5263 -9.6586,6.7843 -12.09189,11.98742m5.55518,-7.39178c-9.13975,5.56061 -14.92264,15.44861 -15.54996,25.79828c-8.37565,-8.06922 -20.45089,-11.78266 -31.75105,-9.54676m20.59547,-0.39917c-6.25802,-1.86456 -13.41073,-1.54058 -20.38226,1.40894c-0.00043,0.00061 -0.00088,0.00098 -0.00099,0.00195c-8.52364,3.60633 -15.148,10.43836 -18.87494,18.60102c-0.65443,1.43335 -1.21991,2.90783 -1.69128,4.41345m14.04412,-20.85217c-7.34872,3.79437 -12.81021,9.81408 -15.96647,16.8175c-3.55248,7.88257 -4.16599,17.00409 -1.27925,25.59747c2.38032,7.08588 5.68948,12.5752 9.64639,17.06903m-0.35702,-12.9085c3.61022,6.72729 8.17498,11.75879 13.55163,15.75164c6.25083,4.64197 13.58449,7.88269 21.71124,10.75367c3.71688,1.31305 7.60025,2.54852 11.62743,3.80346m-23.22316,-6.58514c0.19975,0.07971 0.39995,0.15906 0.60057,0.2381c7.90875,3.11487 16.49762,5.69958 25.31084,8.79071c6.11798,2.14581 12.34425,4.53717 18.51056,7.52124m-13.7844,-3.41675c6.55156,2.44806 13.40329,5.5639 20.50625,9.62653c2.8172,-10.99213 7.50349,-20.79035 12.90957,-30.09943c1.43901,-2.47791 2.92908,-4.91998 4.4482,-7.3374m-9.32176,17.13055c1.07669,-2.68768 2.22624,-5.35626 3.42253,-8.01074c4.12362,-9.15002 8.80558,-18.13373 12.95428,-27.16528c3.8534,-8.38868 7.23834,-16.80201 9.29669,-25.50104m-9.52359,15.98028c2.50714,-5.31634 4.50623,-10.46966 5.70319,-15.60186c0.86148,-3.69373 1.30612,-7.37677 1.23669,-11.08643c-0.06939,-3.70966 -0.65506,-7.44665 -1.81555,-11.22198c-1.86337,-6.06196 -5.49023,-10.64447 -9.84656,-13.33527m19.89606,17.01141c-3.14603,-7.09173 -9.10397,-12.44238 -16.39062,-15.59082c-8.30538,-3.58862 -18.33704,-4.30108 -28.20812,-1.52758c-4.89874,1.3764 -9.3017,3.47851 -13.10242,6.0661m15.77338,-12.36744c-1.60739,0.3769 -3.22162,0.90528 -4.82817,1.59205c-5.90354,2.52343 -10.87529,6.83557 -14.52466,12.19384c-3.64937,5.35822 -5.98253,11.76502 -6.66336,18.5163c-2.04717,-1.50684 -4.29236,-2.75922 -6.68163,-3.73547m2.57979,4.78533c-0.43606,1.72077 -0.71956,3.50757 -0.843,5.33838c-4.65282,-4.39959 -10.40832,-7.1737 -16.58998,-8.1004c-6.18166,-0.92676 -12.78647,-0.00702 -19.16135,3.03577c-0.001,0.00305 -0.003,0.00604 -0.00401,0.00805c-3.42624,1.63575 -6.53403,3.7627 -9.28139,6.26069m297.48424,27.55755c-5.69433,0.99451 -10.50085,5.47113 -11.57672,11.63947c-0.7197,4.12634 -0.23456,7.70544 1.06711,11.03589c1.30163,3.33044 3.42044,6.4107 5.96112,9.53643c3.22757,3.97095 7.13126,8.01667 10.91205,12.74616m-2.41251,-4.10797c4.9754,5.86816 10.79855,12.27997 14.01148,21.44769c5.51129,-6.06946 11.42242,-9.79987 16.59756,-13.4021m-7.15323,6.23779c5.01285,-3.66961 10.39292,-6.27325 15.16718,-9.00396c3.38067,-1.93366 6.45929,-3.93354 8.90927,-6.42554c2.44998,-2.49194 4.27255,-5.47937 5.15195,-9.34827c0.893,-3.92907 0.03106,-7.81994 -2.10383,-10.86761c-2.13494,-3.04761 -5.54016,-5.25794 -9.74722,-5.80115c-0.57541,-0.07428 -1.15088,-0.11517 -1.72452,-0.12396m6.2435,7.96271c-2.02975,-4.3689 -5.88543,-7.86402 -10.70492,-9.20057c-5.84983,-1.62231 -11.50614,0.38019 -14.62192,4.3747c-0.90231,-6.16779 -4.81223,-11.48084 -10.1615,-13.70978c-2.42129,-1.00891 -4.82828,-1.27222 -6.9913,-0.94952m6.26471,6.94696c-6.70169,0.65088 -12.3559,5.17822 -13.97077,11.51428c-1.03506,4.0611 -0.79681,7.57727 0.23456,10.83466c1.03137,3.25732 2.86005,6.25366 5.03,9.27215c2.28201,3.17432 4.94296,6.37445 7.43527,9.93207m-18.38659,-16.31085c0.41738,0.57025 0.8468,1.14142 1.28607,1.71527c5.0108,6.54608 11.26666,13.43249 15.48144,23.20441c7.49622,-6.83466 15.98834,-10.37305 23.28742,-14.14057c1.91809,-0.99005 3.75158,-1.9964 5.45764,-3.0827m-18.33798,12.41577c2.85348,-1.39655 5.65616,-2.76367 8.29117,-4.23932c3.61602,-2.02502 6.91381,-4.25006 9.59903,-7.05987c2.68515,-2.80994 4.75149,-6.19635 5.98562,-10.68122c1.25324,-4.55456 0.78235,-9.14789 -0.87787,-13.00335c-1.66028,-3.85541 -4.51989,-6.96418 -8.00055,-8.59839c-0.16064,-0.07538 -0.32119,-0.1471 -0.48156,-0.21503m13.2063,5.00311c-2.04816,-3.36877 -5.48334,-5.93304 -9.69178,-6.74054c-5.77801,-1.1087 -11.41607,1.42346 -14.52133,6.11707c-0.89178,-5.46875 -4.80398,-9.99677 -10.13092,-11.09723c-1.56924,-0.32422 -3.13064,-0.3244 -4.61984,-0.03778m2.20758,-2.69562c-5.68701,1.37225 -10.7254,6.06439 -12.19751,12.30414c-0.97156,4.11822 -0.78818,7.61096 0.14691,10.8186c0.93506,3.20764 2.61261,6.11908 4.59174,9.02954c2.98456,4.38904 6.65289,8.77387 9.57727,14.26618m-15.01825,-11.99915c4.12012,5.33838 8.94586,11.41156 12.58093,19.77795c7.63129,-6.59381 16.48682,-9.59704 24.06845,-12.80896c2.099,-0.88928 4.09946,-1.79437 5.94913,-2.79235m-9.28668,7.34539c2.72015,-1.32727 5.32727,-2.58685 7.73864,-3.90588c3.51264,-1.92151 6.61194,-3.96844 9.02863,-6.54449c2.41669,-2.57612 4.15417,-5.68091 4.88464,-9.73963c1.48371,-8.24359 -4.1546,-16.4527 -12.92199,-18.21564c-2.60303,-0.52337 -5.19171,-0.41674 -7.60794,0.2157m20.05105,1.78754c-1.98175,-1.95844 -4.47909,-3.37659 -7.32495,-3.99182c-5.96222,-1.28894 -11.8143,1.30023 -15.20825,6.17328c-1.18048,-5.28931 -5.42328,-9.52484 -11.21521,-10.23853c-3.99246,-0.49194 -7.95575,0.79358 -11.10269,3.37494c-3.14695,2.58136 -5.48001,6.45056 -6.20411,11.15173c-0.13296,0.86335 -0.22674,1.70655 -0.28372,2.53199m2.2294,-12.4549c-6.88769,0.39356 -12.58184,5.0929 -13.76333,11.90344c-0.73813,4.25519 -0.17621,7.99665 1.23987,11.52515c1.41607,3.5285 3.69854,6.84875 6.44403,10.27771c3.23312,4.03809 7.10717,8.22675 10.91577,13.06421m-14.33405,-17.03485c3.93137,5.89337 9.24909,12.17566 13.34052,20.67645c7.69549,-7.41363 16.81454,-11.69189 24.56079,-16.33313c0.80969,-0.48517 1.60461,-0.97412 2.38171,-1.47082m-6.60473,6.69482c2.99694,-1.7406 5.85669,-3.28296 8.47769,-4.82434c3.51578,-2.06763 6.60409,-4.13562 9.00192,-6.66602c2.39777,-2.53039 4.10904,-5.52704 4.79883,-9.38629c1.401,-7.83844 -4.33783,-15.47357 -13.22925,-16.573c-1.49432,-0.18475 -2.98358,-0.17114 -4.43933,0.02259m20.80096,1.93408c-2.18899,-2.56482 -5.27722,-4.44434 -8.9429,-5.10169c-6.09509,-1.09302 -12.11294,1.51447 -15.74167,6.32825c-1.41528,-5.34851 -5.93481,-9.72235 -12.12683,-10.61719c-6.02334,-0.87048 -12.0227,1.79749 -15.8573,6.68048" id="path7" stroke-miterlimit="4" stroke-linejoin="round" stroke-linecap="round" stroke-width="2" stroke="#ff1650" fill="none"/>
   <path id="path3633" d="m322.42914,8.86792c0,0 5.10907,0.94931 12.87372,2.52728c7.76464,1.57797 18.17895,3.79706 28.80499,6.30332c10.62604,2.50625 21.4631,5.30114 30.13797,7.89273c8.6749,2.59161 15.19205,4.97036 17.21445,6.56708c2.86322,2.26056 -2.5235,2.34176 -12.42841,1.38144c-9.90491,-0.96033 -24.34433,-2.92743 -39.58539,-4.76603c-15.24106,-1.83856 -31.28616,-3.54345 -44.26111,-4.28061c-12.97494,-0.73718 -22.86831,-0.53106 -25.73233,1.29575c-3.46514,2.21027 5.17988,5.52045 20.03922,9.5806c14.85931,4.06012 35.90265,8.93484 57.29037,14.15387c10.69388,2.60952 21.47788,5.29657 31.65049,7.94177c10.1726,2.64523 19.73413,5.2478 28.00116,7.65005c16.53393,4.80448 27.8977,8.79047 28.67975,10.57502c1.02392,2.33651 -9.42334,1.30679 -25.82209,-1.25452c-8.1994,-1.28064 -17.8905,-2.93598 -28.38257,-4.73825c-10.49212,-1.80228 -21.78573,-3.7504 -33.1726,-5.65409c-11.3869,-1.90371 -22.86701,-3.7629 -33.71021,-5.43405c-10.8432,-1.67114 -21.04907,-3.15518 -29.86838,-4.34887c-17.6387,-2.38743 -29.72024,-3.6373 -30.20922,-3.01435c-0.822,1.04715 10.5259,3.58103 27.88015,7.15454c8.67707,1.78672 18.85248,3.84034 29.75934,6.09723c10.9068,2.25687 22.54465,4.71811 34.16553,7.27964c11.62091,2.56152 23.22485,5.22341 34.08691,7.83279c10.86206,2.60941 20.98261,5.16531 29.65625,7.47336c17.34729,4.61603 28.91818,8.21634 29.11304,9.15158c0.15173,0.72848 -2.95453,0.55426 -8.52118,-0.27741c-5.56668,-0.83166 -13.59561,-2.31665 -23.3038,-4.1788c-9.70813,-1.86215 -21.09677,-4.09869 -33.37323,-6.45398c-12.27646,-2.35528 -25.44132,-4.82794 -38.67771,-7.21396c-13.23632,-2.38601 -26.54412,-4.68539 -39.07718,-6.75665c-12.53302,-2.07126 -24.29061,-3.91574 -34.40164,-5.44501c-20.22198,-3.05859 -33.84193,-4.88986 -33.84193,-4.88986c0,0 13.68642,1.85568 34.00514,4.95096c10.15936,1.54764 21.9729,3.41363 34.56491,5.50787c12.59198,2.09427 25.96185,4.41812 39.25913,6.82782c13.2973,2.4097 26.52197,4.90525 38.85333,7.27967c12.3313,2.37442 23.76996,4.62634 33.51947,6.49661c9.74957,1.87027 17.81134,3.35611 23.39874,4.17776c5.58737,0.82163 8.7023,0.97489 8.54346,0.2114c-0.42633,-2.04883 -11.93835,-6.4259 -29.11115,-11.52484c-8.58642,-2.54947 -18.59045,-5.27417 -29.32772,-7.98688c-10.73722,-2.71268 -22.2081,-5.41241 -33.7092,-7.9523c-11.50104,-2.53986 -23.03232,-4.91992 -33.86847,-7.04007c-10.83612,-2.12015 -20.97669,-3.98141 -29.67801,-5.5224c-17.4028,-3.08194 -29.0368,-4.9089 -28.92511,-5.05112c0.44455,-0.56634 12.5101,0.7342 30.1474,3.16193c8.81863,1.21387 19.02737,2.71551 29.87546,4.40115c10.84802,1.68564 22.33496,3.55622 33.72882,5.46747c11.39395,1.91126 22.69488,3.8631 33.19296,5.6644c10.49808,1.80133 20.19388,3.45099 28.39511,4.72031c16.40247,2.5386 26.84223,3.52273 25.78644,1.11169c-1.29751,-2.96317 -12.60834,-7.72165 -28.84875,-12.98026c-16.24042,-5.25863 -37.43277,-10.9696 -58.36597,-16.10925c-20.93326,-5.13962 -41.60498,-9.7128 -56.52606,-13.28888c-14.92108,-3.57611 -24.06439,-6.21264 -21.88205,-7.60422c2.78348,-1.77484 12.66391,-1.93142 25.65713,-1.15338c12.99323,0.77805 29.08765,2.5156 44.37326,4.37101c15.28568,1.8554 29.76499,3.82339 39.6709,4.75747c9.90598,0.93412 15.25522,0.79889 12.28073,-1.55191c-3.81512,-3.01513 -11.29523,-6.10211 -20.40539,-8.95981c-9.11011,-2.85772 -19.85285,-5.48083 -30.15271,-7.65451c-10.29987,-2.17367 -20.15577,-3.9002 -27.44098,-5.07412c-7.28528,-1.17389 -11.99518,-1.80518 -11.99518,-1.80518zm-216.55818,5.91074c0,0 5.25123,0.46145 13.23831,1.31463c7.98709,0.85315 18.70434,2.11014 29.65109,3.66986c10.94675,1.55973 22.12229,3.42374 31.08853,5.35742c8.96625,1.93369 15.72745,3.92808 17.88187,5.67106c2.82077,2.28207 -2.08185,3.1976 -11.09757,3.38345c-9.01574,0.18582 -22.15786,-0.32974 -35.8161,-0.91c-13.65826,-0.58027 -27.83423,-1.22178 -38.80578,-1.52631c-10.97155,-0.30454 -18.72864,-0.29346 -19.50019,0.32709c-1.29686,1.04309 6.79065,2.38632 19.62058,4.02438c12.82992,1.63806 30.38501,3.60776 48.06952,5.80518c17.68454,2.19741 35.49768,4.62433 49.02597,6.78836c13.52826,2.16403 22.78726,4.03192 23.43481,4.9592c1.00882,1.44455 -9.64722,0.99539 -26.39966,-0.13059c-16.75244,-1.12601 -39.63128,-2.86487 -62.99533,-4.15494c-11.68203,-0.64505 -23.48112,-1.18692 -34.6629,-1.5552c-11.18176,-0.36832 -21.7458,-0.56397 -30.93993,-0.55451c-18.38823,0.01892 -31.28669,0.83686 -32.63528,2.62235c-0.83936,1.11126 5.29575,2.3855 16.61507,3.90295c11.31932,1.51743 27.81575,3.29321 47.64859,5.51505c19.83285,2.22183 42.99734,4.89987 67.69104,8.14038c24.69369,3.24051 50.91418,7.04861 76.95062,11.33511c26.03645,4.2865 51.88884,9.05152 75.9565,13.97119c24.06759,4.91965 46.35272,9.98911 65.3479,14.68546c18.99527,4.69638 34.70529,9.00979 45.66409,12.3291c10.9588,3.3193 17.17334,5.62964 17.13214,6.41693c-0.05395,1.03204 -6.2312,0.34244 -17.06232,-1.51663c-10.83111,-1.85907 -26.32299,-4.87302 -45.05517,-8.38547c-18.73218,-3.51245 -40.70926,-7.51367 -64.47382,-11.4259c-23.76459,-3.91223 -49.31897,-7.73059 -75.11737,-11.06589c-25.79842,-3.33533 -51.84087,-6.18759 -76.47569,-8.39334c-24.6348,-2.20575 -47.85971,-3.76984 -67.93389,-4.71887c-20.07417,-0.94904 -36.99305,-1.29273 -48.9776,-1.13922c-11.98453,0.1535 -19.02789,0.78964 -19.39778,1.89999c-0.44417,1.33337 5.97861,2.84027 17.49516,4.59277c11.51656,1.75248 28.11998,3.76526 47.99079,6.20908c19.8708,2.44385 43.00441,5.32855 67.62129,8.73962c24.61691,3.41104 50.71481,7.35334 76.60596,11.7168c25.89113,4.36346 51.57554,9.14807 75.47429,14.01172c23.89877,4.86368 46.01416,9.80145 64.85864,14.27649c18.84445,4.47507 34.42267,8.47754 45.28625,11.38681c10.86365,2.9093 17.01954,4.71066 16.97208,4.88455c-0.11069,0.40601 -6.23148,-0.84268 -16.91659,-3.20892c-10.68519,-2.36621 -25.94123,-5.83597 -44.36768,-9.77573c-18.42645,-3.93973 -40.02771,-8.34012 -63.36621,-12.64664c-23.3385,-4.30654 -48.41638,-8.51455 -73.70966,-12.25384c-25.29329,-3.73926 -50.80195,-7.0098 -74.89918,-9.66061c-24.09723,-2.65079 -46.78083,-4.68656 -66.33766,-6.14011c-19.55684,-1.45355 -35.98255,-2.33432 -47.52729,-2.75345c-11.54474,-0.41916 -18.20193,-0.39072 -18.26748,0.0716c-0.09761,0.68808 6.4873,1.67065 18.0216,3.00058c11.53433,1.32992 28.01143,3.02142 47.65387,5.22192c19.64247,2.2005 42.44585,4.91949 66.67153,8.22174c24.2257,3.30225 49.87149,7.19247 75.28739,11.54654c25.4159,4.35406 50.60187,9.17197 74.013,14.10556c23.41111,4.93362 45.04963,9.97818 63.45868,14.59775c18.40912,4.61957 33.5932,8.80459 44.1333,11.93847c10.5401,3.13392 16.44288,5.2024 16.2436,5.68659c-0.29175,0.70868 -6.53614,-0.29227 -17.29761,-2.45633c-10.76154,-2.16406 -26.04675,-5.4773 -44.46481,-9.29819c-18.418,-3.82089 -39.97318,-8.14016 -63.23758,-12.39526c-23.26441,-4.25513 -48.24018,-8.44147 -73.41352,-12.17954c-25.17335,-3.73809 -50.54426,-7.02795 -74.49687,-9.70764c-23.95264,-2.67966 -46.48477,-4.75384 -65.89522,-6.24255c-19.41044,-1.48871 -35.69484,-2.40134 -47.11586,-2.83478c-11.42102,-0.43341 -17.97215,-0.40167 -17.96211,0.0964c0.01471,0.72657 6.02071,1.73401 16.46579,3.05497c10.4451,1.32092 25.32385,2.96679 43.04889,5.04486c17.72502,2.07806 38.29274,4.59594 60.14784,7.59259c21.85507,2.99667 44.99573,6.47589 67.93872,10.32284c22.94301,3.84696 45.6884,8.06162 66.83815,12.34751c21.14969,4.28589 40.70566,8.63913 57.34098,12.61139c16.63531,3.97222 30.35363,7.55575 39.85852,10.23767c9.50488,2.68191 14.80169,4.45065 14.55627,4.87375c-0.37073,0.63916 -6.0328,-0.15601 -15.70093,-1.92218c-9.66818,-1.76618 -23.3475,-4.4925 -39.7868,-7.64335c-16.43927,-3.15081 -35.64194,-6.71896 -56.32684,-10.23233c-20.68494,-3.51339 -42.85389,-6.96844 -65.15798,-10.03753c-22.30407,-3.06906 -44.74331,-5.75232 -65.88901,-7.89234c-21.14566,-2.13998 -40.99606,-3.74054 -58.0563,-4.78534c-17.06026,-1.04476 -31.32689,-1.54126 -41.27843,-1.5299c-9.95154,0.01129 -15.58275,0.51935 -15.41083,1.56601c0.20998,1.27841 5.96024,2.79233 15.80857,4.57141c9.84834,1.77911 23.79016,3.83316 40.35545,6.25119c16.56528,2.418 35.75101,5.20645 56.11658,8.39148c20.3656,3.185 41.9096,6.76977 63.25491,10.64514c21.34529,3.8754 42.49196,8.04123 62.13704,12.23044c19.64511,4.18918 37.79016,8.39828 53.19366,12.22928c15.40351,3.83096 28.06864,7.27704 36.77921,9.88601c8.7106,2.60895 13.47134,4.37076 13.03213,4.90552c-0.60788,0.74014 -6.55902,0.02863 -16.55404,-1.67306c-9.99497,-1.70163 -24.03897,-4.38221 -40.86646,-7.50751c-16.82748,-3.12528 -36.44195,-6.6879 -57.54696,-10.2196c-21.10498,-3.53174 -43.70223,-7.02894 -66.42553,-10.17194c-22.72326,-3.14304 -45.5726,-5.93201 -67.09964,-8.22235c-21.52704,-2.29038 -41.72999,-4.086 -59.09228,-5.388c-17.36229,-1.302 -31.88034,-2.11792 -42.00937,-2.509c-10.12903,-0.39112 -15.86374,-0.36866 -15.69753,0.08758c0.2515,0.69037 6.37772,1.67426 16.85547,2.97525c10.47776,1.301 25.30185,2.93018 42.91626,4.9812c17.61438,2.05106 38.01558,4.53128 59.67943,7.46649c21.66388,2.93521 44.58869,6.32898 67.32068,10.05686c22.732,3.7279 45.27126,7.78979 66.2469,11.88446c20.97571,4.09466 40.38959,8.21829 56.9401,11.92209c16.5505,3.70379 30.24118,6.98019 39.79974,9.31781c9.55856,2.33761 14.9903,3.72516 14.98645,3.72931c-0.19147,0.20452 -5.73398,-0.9849 -15.33163,-3.11994c-9.59766,-2.13501 -23.25559,-5.20462 -39.71244,-8.68655c-16.45685,-3.48197 -35.71603,-7.36893 -56.48645,-11.2024c-20.77041,-3.83343 -43.05363,-7.60974 -65.49013,-11.01626c-22.43649,-3.4065 -45.02615,-6.4433 -66.32833,-8.97055c-21.30216,-2.52725 -41.31505,-4.54874 -58.53022,-6.06903c-17.21516,-1.52033 -31.6291,-2.54691 -41.70489,-3.14511c-10.07579,-0.59821 -15.8082,-0.77915 -15.69701,-0.52985c0.21659,0.48566 5.94188,1.29123 15.74443,2.43005c9.80255,1.1388 23.67778,2.62064 40.16484,4.5214c16.48708,1.90072 35.58297,4.22689 55.85488,6.99453c20.27194,2.76764 41.71844,5.97995 62.96893,9.52048c21.25052,3.5405 42.30507,7.40909 61.8662,11.33331c19.56119,3.92423 37.63052,7.90073 52.97152,11.52741c15.34104,3.62665 27.95679,6.89676 36.63599,9.35431c8.6792,2.45755 13.42658,4.0925 12.99731,4.52017c-0.62826,0.62598 -5.91604,0.00803 -14.72125,-1.46365c-8.80523,-1.47187 -21.13189,-3.78937 -35.86319,-6.50913c-14.73123,-2.7197 -31.86978,-5.83606 -50.27463,-8.95694c-18.4049,-3.12088 -38.07743,-6.24359 -57.82341,-9.08972c-19.74594,-2.84613 -39.56521,-5.41583 -58.20114,-7.56403c-18.63589,-2.14819 -36.087,-3.87787 -51.04493,-5.15405c-14.95794,-1.27615 -27.41994,-2.10465 -36.05696,-2.49457c-8.63703,-0.38992 -13.44498,-0.34994 -13.12517,0.17551c0.4676,0.76828 5.86364,1.85412 14.90878,3.2496c9.04515,1.39551 21.73567,3.10858 36.77005,5.17859c15.03438,2.07001 32.41014,4.5022 50.84987,7.28464c18.4397,2.78241 37.94211,5.91763 57.28134,9.28384c19.3392,3.36624 38.51525,6.96335 56.36235,10.54144c17.84705,3.57807 34.36643,7.13431 48.4422,10.31241c14.07578,3.1781 25.71048,5.97254 33.80905,7.98261c8.09861,2.01001 12.66495,3.22748 12.57685,3.3092c-0.29868,0.2771 -5.28009,-0.64392 -13.80228,-2.3866c-8.5221,-1.74261 -20.5889,-4.29846 -35.08429,-7.23559c-14.49542,-2.93707 -31.422,-6.24982 -49.64056,-9.55576c-18.21857,-3.30594 -37.73037,-6.60232 -57.34359,-9.61877c-19.61319,-3.01645 -39.32776,-5.75308 -57.88971,-8.07187c-18.56198,-2.31882 -35.97,-4.22269 -50.91841,-5.68393c-14.94841,-1.46124 -27.43454,-2.4855 -36.13133,-3.09076c-8.69678,-0.60525 -13.6002,-0.80002 -13.41194,-0.54095c0.36674,0.50473 5.82132,1.37442 15.04527,2.59521c9.22396,1.22077 22.21334,2.80112 37.62497,4.77991c15.41162,1.97879 33.24286,4.36169 52.17536,7.13464c18.93252,2.77295 38.96499,5.93872 58.8334,9.36753c19.86841,3.4288 39.5728,7.12051 57.91286,10.8095c18.34005,3.68897 35.31717,7.37226 49.78415,10.67103c14.46692,3.2987 26.42645,6.20709 34.75366,8.29864c8.32718,2.09149 13.02618,3.35754 12.9436,3.43219c-0.29706,0.26849 -5.11001,-0.64239 -13.33642,-2.36652c-8.22638,-1.72418 -19.86994,-4.25366 -33.85242,-7.17047c-13.98254,-2.91681 -30.30649,-6.21569 -47.87207,-9.52484c-17.56555,-3.30914 -36.37395,-6.626 -55.27614,-9.68356c-18.90222,-3.05756 -37.89825,-5.85584 -55.7811,-8.25153c-17.88281,-2.39572 -34.65118,-4.39154 -49.04972,-5.94723c-14.39855,-1.55567 -26.42479,-2.67655 -34.80329,-3.36514c-8.37851,-0.6886 -13.10553,-0.95295 -12.93239,-0.7385c0.37542,0.46494 5.31638,1.30081 13.63945,2.4801c8.32308,1.17929 20.02504,2.70893 33.90258,4.60376c13.87753,1.89484 29.92853,4.15946 46.97003,6.7652c17.04153,2.60574 35.07254,5.55487 52.9545,8.72421c17.88196,3.16935 35.61494,6.55881 52.11216,9.93454c16.49732,3.3758 31.76008,6.73548 44.74469,9.75336c12.98465,3.01795 23.69342,5.68933 31.10059,7.65039c7.40729,1.96106 11.51624,3.20471 11.27777,3.41742c-0.45593,0.40668 -4.79889,-0.20367 -12.05792,-1.50598c-7.25906,-1.30231 -17.43698,-3.29059 -29.57959,-5.60406c-12.14258,-2.31354 -26.25168,-4.94831 -41.35538,-7.58124c-15.10373,-2.63294 -31.20295,-5.26215 -47.28819,-7.64466c-16.08524,-2.38244 -32.15637,-4.51849 -47.16077,-6.25714c-15.00442,-1.73864 -28.94098,-3.08218 -40.72281,-3.95279c-11.7818,-0.87063 -21.40678,-1.27267 -27.77704,-1.15176c-6.37023,0.12091 -9.48274,0.75839 -8.26632,2.02393c2.93649,3.05499 18.20215,6.82739 39.20331,11.24383c10.50058,2.20819 22.43331,4.58118 34.98623,7.08356c12.55289,2.50238 25.72559,5.13507 38.73001,7.81183c13.00443,2.67682 25.8407,5.3974 37.74721,8.01922c11.9065,2.62189 22.88379,5.14368 32.19153,7.37775c18.61539,4.4682 30.56811,7.75159 29.9552,8.30457c-1.04712,0.94476 -13.76334,-1.08893 -32.25006,-4.16736c-9.24335,-1.53919 -19.93219,-3.33356 -31.32202,-5.15656c-11.38985,-1.823 -23.48113,-3.67364 -35.50786,-5.3714c-12.02673,-1.69769 -23.98883,-3.24273 -35.09598,-4.50628c-11.10712,-1.26361 -21.35864,-2.24713 -29.94534,-2.86206c-8.5867,-0.61499 -15.50739,-0.86396 -19.94772,-0.66938c-4.44037,0.19458 -6.39863,0.82898 -5.07731,2.01673c3.25473,2.92572 15.14212,6.36529 30.97516,10.1784c15.83301,3.81305 35.59671,8.0315 54.72013,12.26764c19.12341,4.23615 37.60879,8.48511 51.09611,11.90955c13.48728,3.4245 21.99603,5.98285 21.21344,6.73687c-1.19626,1.15265 -11.01431,0.07795 -25.12442,-1.95617c-14.11009,-2.03406 -32.53007,-4.98963 -50.85618,-7.75666c-18.32615,-2.76702 -36.55771,-5.34692 -50.08854,-7.06121c-13.53085,-1.7143 -22.34179,-2.60389 -21.77316,-2.10431c1.20813,1.06146 10.55698,3.02533 23.76431,5.60486c13.20737,2.57946 30.25928,5.80432 46.94538,9.23474c16.68606,3.43036 33.0072,7.06433 44.92268,10.10028c11.91553,3.03601 19.44113,5.44031 18.58072,6.3164c-1.25629,1.27924 -9.49991,0.68891 -21.10051,-0.66778c-11.60058,-1.35669 -26.56991,-3.45471 -41.22204,-5.30939c-14.65217,-1.85467 -28.98578,-3.46893 -39.18146,-4.1427c-10.19568,-0.67377 -16.23892,-0.43793 -14.29572,1.37634c2.55222,2.38282 11.47644,5.24482 23.3411,8.36176c11.86468,3.11694 26.66153,6.50647 41.02511,9.80334c14.36362,3.29682 28.29526,6.49829 38.54793,8.98682c10.25263,2.48846 16.8371,4.24091 16.53391,4.58099c-0.66758,0.74872 -7.42942,-0.06097 -17.18509,-1.54309c-9.75569,-1.48199 -22.51409,-3.61737 -35.13777,-5.599c-12.62366,-1.98156 -25.112,-3.81048 -34.22815,-4.89154c-9.11612,-1.08105 -14.85007,-1.43555 -13.94449,-0.51166c1.46533,1.49494 7.32705,3.40357 15.23791,5.5232c7.91086,2.11956 17.86685,4.45868 27.55005,6.75195c9.68323,2.29321 19.09421,4.53949 25.97034,6.35553c6.8761,1.81604 11.22246,3.19104 10.78929,3.71423c-1.55228,1.87531 -12.73705,0.62378 -23.1208,-0.45434c-10.38376,-1.07819 -19.95847,-2.00013 -18.10437,0.13708c2.85656,3.29273 9.42279,5.94763 14.69189,8.58234c5.2691,2.63476 9.24579,5.23926 6.97058,8.33026c-5.79245,7.86938 -11.60333,6.74786 -9.9476,8.9989c3.33081,4.52826 -4.00464,2.99579 -4.25586,3.37073c-0.698,1.04175 3.52005,2.51019 7.90326,3.73828c4.38318,1.22803 8.93131,2.216 8.93131,2.216c0,0 -4.34537,-0.88049 -8.5058,-2.03155c-4.16043,-1.151 -8.13568,-2.57294 -7.36142,-3.72846c2.69327,-4.01941 4.01275,-3.69971 4.25534,-3.36963c-1.43195,-1.94836 3.9888,-0.90301 9.94641,-8.9964c3.59976,-4.89026 -1.43536,-8.75042 -7.56912,-11.55401c-6.13376,-2.80359 -13.3696,-4.54322 -14.08737,-5.37134c-1.71988,-1.98431 7.80651,-1.00159 18.13168,0.07062c10.32516,1.07214 21.44154,2.25 23.08516,0.26452c1.16485,-1.4071 -3.10477,-3.54876 -10.2076,-5.93097c-7.10287,-2.3822 -17.04535,-4.99139 -27.20901,-7.37048c-10.16364,-2.37903 -20.54865,-4.52753 -28.46967,-6.13098c-7.92099,-1.60345 -13.3721,-2.6745 -13.64316,-2.95129c-0.83069,-0.84821 4.927,-0.43903 14.03949,0.67859c9.11252,1.11755 21.57001,2.96441 34.16001,4.94665c12.59002,1.9823 25.31198,4.10101 35.05189,5.55237c9.73993,1.45129 16.50659,2.21649 17.22266,1.41345c1.08035,-1.21161 -5.42548,-3.73468 -15.92383,-6.79669c-10.49837,-3.06201 -25.00206,-6.63568 -39.8831,-10.02136c-14.88104,-3.38575 -30.14035,-6.58167 -42.01319,-9.17981c-11.87286,-2.59815 -20.34817,-4.6222 -21.60083,-5.79285c-1.86148,-1.73956 4.20774,-1.92102 14.39942,-1.21045c10.19168,0.71057 24.49157,2.34357 39.10693,4.19977c14.61536,1.8562 29.54486,3.93842 41.12819,5.2652c11.58328,1.32678 19.832,1.87329 21.14096,0.54065c1.70477,-1.73572 -5.72253,-4.90607 -17.88919,-8.5138c-12.16664,-3.60773 -29.0909,-7.61371 -46.3278,-11.13177c-17.23685,-3.51813 -34.78663,-6.54767 -48.01239,-8.61176c-13.22577,-2.06402 -22.10981,-3.20038 -21.95368,-3.06305c-0.48318,-0.42492 8.35425,0.52039 21.8801,2.27332c13.52588,1.75299 31.72119,4.35382 50.00808,7.1242c18.28687,2.77039 36.66465,5.71161 50.75637,7.71686c14.09167,2.00525 23.91488,3.03687 25.16617,1.83142c1.66482,-1.60388 -6.70957,-4.9226 -20.41971,-8.91552c-13.71015,-3.99292 -32.77843,-8.61243 -52.44643,-12.93482c-19.66797,-4.32239 -39.93753,-8.34387 -55.81387,-11.64459c-15.87637,-3.30078 -27.34082,-5.92078 -29.28906,-7.67383c-1.28013,-1.15185 0.70471,-1.75458 5.16037,-1.92138c4.45562,-0.16675 11.38034,0.10614 19.96334,0.74108c8.58298,0.63495 18.82309,1.63446 29.91468,2.90979c11.09161,1.27527 23.03412,2.82782 35.04068,4.52869c12.00659,1.70087 24.07718,3.55029 35.44923,5.36792c11.37201,1.81757 22.0459,3.60236 31.28052,5.1283c18.46921,3.05182 31.1925,5.04419 32.2973,4.04748c0.76947,-0.69415 -1.7836,-2.04004 -6.86865,-3.8504c-5.08512,-1.8103 -12.70398,-4.08118 -22.0806,-6.59406c-9.37668,-2.51287 -20.51239,-5.26513 -32.6225,-8.05658c-12.11006,-2.7915 -25.19526,-5.62078 -38.44792,-8.33679c-13.25265,-2.71606 -26.67282,-5.3186 -39.42438,-7.71747c-12.75158,-2.39892 -24.83401,-4.59521 -35.38583,-6.55255c-21.10364,-3.91479 -36.07446,-6.89618 -37.93593,-8.83453c-1.18248,-1.23132 1.95091,-1.83795 8.33202,-1.93106c6.3811,-0.09311 16.00693,0.33365 27.78287,1.22555c11.77594,0.89185 25.69995,2.25318 40.68847,4.00556c14.9885,1.75238 31.04044,3.89819 47.10645,6.28607c16.06598,2.38794 32.14592,5.01819 47.23344,7.64783c15.08759,2.62964 29.18356,5.25689 41.31915,7.55883c12.13556,2.30188 22.31247,4.27472 29.57953,5.55799c7.26706,1.28326 11.62696,1.87109 12.11182,1.43872c0.70221,-0.62628 -3.10663,-2.26044 -10.33728,-4.5788c-7.23071,-2.31836 -17.88678,-5.31335 -30.90479,-8.60681c-13.018,-3.29346 -28.40026,-6.88031 -45.06463,-10.42206c-16.66434,-3.54168 -34.61192,-7.03586 -52.71523,-10.24066c-18.10327,-3.20483 -36.36227,-6.12033 -53.59491,-8.62094c-17.23266,-2.50061 -33.4378,-4.58878 -47.38743,-6.23694c-13.94963,-1.64813 -25.64142,-2.86124 -33.82756,-3.65393c-8.18614,-0.79269 -12.86312,-1.17245 -12.80704,-1.10294c-0.14613,-0.18115 4.59641,0.1139 12.98167,0.83066c8.38527,0.71674 20.40955,1.86316 34.80047,3.4412c14.39093,1.57803 31.14596,3.59301 49.01287,6.00399c17.86692,2.41101 36.84446,5.22068 55.72858,8.28531c18.88413,3.06461 37.67479,6.38422 55.22588,9.69171c17.55105,3.3075 33.8637,6.60028 47.84088,9.50684c13.97705,2.90649 25.62106,5.42157 33.85635,7.12738c8.23532,1.70587 13.06564,2.59479 13.3913,2.30048c0.54007,-0.48816 -3.85678,-2.14386 -12.00006,-4.59156c-8.14331,-2.44763 -20.03739,-5.6781 -34.52231,-9.25067c-14.48493,-3.57257 -31.56351,-7.48114 -50.0528,-11.33417c-18.48932,-3.85305 -38.3907,-7.64755 -58.46577,-11.11026c-20.07504,-3.46267 -40.32376,-6.5935 -59.44126,-9.2608c-19.11749,-2.6673 -37.10235,-4.87402 -52.59376,-6.60791c-15.49136,-1.73389 -28.48645,-3.00094 -37.60007,-3.84054c-9.11361,-0.8396 -14.34153,-1.26081 -14.32751,-1.24149c-0.1644,-0.22644 4.75219,-0.00101 13.45407,0.6318c8.70189,0.63318 21.18506,1.68296 36.12532,3.16666c14.94028,1.48367 32.33496,3.40698 50.88135,5.74139c18.54635,2.33445 38.24307,5.08289 57.83896,8.10694c19.59591,3.02402 39.09095,6.32367 57.29597,9.62848c18.20502,3.30478 35.12122,6.61197 49.612,9.53927c14.49072,2.92725 26.55853,5.46906 35.08991,7.19361c8.53131,1.72461 13.53009,2.62359 13.85684,2.32049c0.53729,-0.49841 -3.72562,-2.10559 -11.63272,-4.46985c-7.90702,-2.36425 -19.46222,-5.47692 -33.53846,-8.92456c-14.07623,-3.44757 -30.67611,-7.22433 -48.65112,-10.96249c-17.97491,-3.73816 -37.32634,-7.43481 -56.85356,-10.83301c-19.52722,-3.39819 -39.23029,-6.49786 -57.84616,-9.17523c-18.61585,-2.67737 -36.14319,-4.93521 -51.26588,-6.76288c-15.12269,-1.8277 -27.83811,-3.23077 -36.80648,-4.24902c-8.96837,-1.01825 -14.18573,-1.66013 -14.33801,-1.91052c-0.3,-0.49332 4.51831,-0.50336 13.15858,-0.08582c8.64028,0.41754 21.09845,1.27133 36.04804,2.5698c14.94957,1.29849 32.38786,3.04748 51.00905,5.21133c18.62121,2.16388 38.42392,4.74554 58.15399,7.59943c19.73004,2.85391 39.38734,5.98016 57.78004,9.10022c18.39274,3.12005 35.52216,6.23117 50.2497,8.94134c14.72748,2.71018 27.05569,5.01382 35.86996,6.46768c8.81434,1.45386 14.11875,2.04953 14.77347,1.39728c0.85367,-0.85052 -3.59793,-2.87729 -12.08136,-5.68845c-8.48333,-2.81115 -21.00342,-6.39627 -36.32177,-10.28808c-15.31842,-3.89182 -33.43842,-8.08338 -53.09601,-12.16248c-19.6576,-4.0791 -40.85439,-8.04223 -62.26357,-11.61087c-21.40918,-3.56866 -43.03079,-6.74276 -63.46267,-9.40448c-20.43189,-2.66168 -39.67246,-4.81433 -56.25599,-6.47567c-16.58352,-1.66135 -30.50676,-2.83826 -40.2763,-3.6074c-9.76956,-0.76916 -15.3806,-1.14086 -15.37232,-1.12228c-0.0971,-0.21786 5.64142,-0.00699 15.71738,0.61893c10.07594,0.62607 24.48413,1.67856 41.68991,3.2221c17.20578,1.54352 37.20566,3.58551 58.4935,6.12977c21.28787,2.54422 43.86194,5.59445 66.28372,9.01028c22.42182,3.4158 44.69133,7.19723 65.45092,11.03134c20.7597,3.83408 40.01117,7.71723 56.46527,11.19077c16.4541,3.47357 30.11429,6.53024 39.72113,8.64782c9.60675,2.11756 15.16531,3.28504 15.38174,3.05384c0.40405,-0.43152 -4.7449,-2.2136 -14.11239,-4.90607c-9.36753,-2.69247 -22.9589,-6.28372 -39.47815,-10.25171c-16.51917,-3.96796 -35.96985,-8.3049 -57.02594,-12.55255c-21.05609,-4.24765 -43.71944,-8.40207 -66.59294,-12.15649c-22.87354,-3.75443 -45.95725,-7.10877 -67.76911,-9.93744c-21.81183,-2.82865 -42.35005,-5.13547 -60.06065,-6.94797c-17.71062,-1.81253 -32.59009,-3.13837 -43.05298,-4.0723c-10.46288,-0.9339 -16.50379,-1.48739 -16.57332,-1.6784c-0.15477,-0.42517 5.58438,-0.41809 15.71268,0.00067c10.12831,0.41879 24.64049,1.26056 41.99374,2.58578c17.35326,1.3252 37.54407,3.14142 59.05786,5.44895c21.5138,2.30755 44.34879,5.1102 67.05866,8.26284c22.70984,3.15265 45.29454,6.65534 66.38975,10.18808c21.09525,3.53272 40.70276,7.09183 57.52777,10.20896c16.82499,3.11712 30.87098,5.78488 40.87421,7.46893c10.00324,1.68408 15.96887,2.37338 16.59912,1.60596c0.79895,-0.97272 -3.698,-3.13364 -12.22119,-6.09769c-8.52325,-2.96405 -21.07764,-6.72088 -36.42883,-10.81039c-15.3512,-4.08948 -33.50244,-8.5047 -53.19361,-12.8404c-19.69113,-4.33569 -40.92389,-8.58837 -62.37538,-12.48648c-21.45151,-3.89813 -43.12182,-7.44156 -63.61252,-10.52002c-20.49069,-3.07843 -39.8002,-5.69516 -56.46565,-7.87725c-16.66545,-2.18207 -30.68371,-3.93622 -40.56265,-5.35181c-9.87894,-1.41556 -15.61379,-2.50275 -15.74245,-3.2869c-0.16672,-1.01602 5.46509,-1.49484 15.41384,-1.47882c9.94874,0.01599 24.20924,0.53803 41.26136,1.60584c17.05216,1.06778 36.89243,2.68881 58.0275,4.84597c21.13504,2.15717 43.56311,4.85425 65.8569,7.9332c22.29378,3.07892 44.45324,6.53983 65.13088,10.05454c20.67764,3.51468 39.87518,7.07962 56.31274,10.22241c16.43756,3.14276 30.11856,5.85611 39.79297,7.60415c9.67444,1.74808 15.34729,2.51996 15.7348,1.85202c0.51276,-0.88394 -4.58111,-3.06698 -13.93591,-6.11242c-9.3548,-3.04547 -22.97601,-6.94159 -39.55594,-11.1702c-16.57999,-4.22864 -36.1224,-8.78186 -57.28909,-13.20706c-21.1666,-4.42517 -43.95923,-8.71832 -66.96742,-12.58072c-23.00818,-3.86237 -46.23188,-7.29392 -68.17441,-10.17966c-21.94254,-2.88568 -42.60208,-5.22943 -60.40929,-7.07113c-17.80719,-1.84171 -32.75837,-3.18915 -43.2525,-4.14975c-10.49411,-0.96064 -16.52568,-1.54612 -16.53049,-1.78543c-0.009,-0.46775 6.53934,-0.47013 17.95578,-0.00901c11.41643,0.46134 27.69403,1.40036 47.0965,2.91324c19.40245,1.51285 41.92543,3.60886 65.86864,6.30725c23.94324,2.69843 49.30456,6.00388 74.46916,9.75357c25.16461,3.74973 50.13248,7.94373 73.39069,12.20185c23.25824,4.25811 44.80905,8.57571 63.22534,12.38968c18.41623,3.81396 33.70245,7.11499 44.46844,9.2611c10.76593,2.14612 17.01825,3.12339 17.32233,2.38474c0.39648,-0.96311 -5.34686,-3.45752 -15.76059,-6.96112c-10.41373,-3.5036 -25.50455,-8.00205 -43.84878,-12.8758c-18.3443,-4.87374 -39.94639,-10.11322 -63.3444,-15.18048c-23.39804,-5.06723 -48.59414,-9.95752 -74.03768,-14.32199c-25.4435,-4.3645 -51.13439,-8.20324 -75.4164,-11.39245c-24.28201,-3.18921 -47.15289,-5.73368 -66.8676,-7.69886c-19.71471,-1.96515 -36.26875,-3.36059 -47.87875,-4.33355c-11.61001,-0.97293 -18.26923,-1.53772 -18.23992,-1.7443c0.0613,-0.43231 6.71297,-0.43155 18.25131,0.01532c11.53836,0.44687 27.95681,1.35395 47.50609,2.83164c19.54927,1.47766 42.22496,3.53534 66.31453,6.20505c24.0896,2.6697 49.59085,5.95614 74.87758,9.70742c25.28671,3.75132 50.35886,7.96747 73.6929,12.27747c23.33414,4.31 44.93241,8.70917 63.35779,12.64224c18.42535,3.93311 33.68216,7.39075 44.37054,9.7388c10.68836,2.34802 16.81476,3.57242 16.93393,3.13547c0.18253,-0.66907 -5.85031,-2.90555 -16.60507,-6.18817c-10.75476,-3.28262 -26.2384,-7.59668 -45.00421,-12.32141c-18.76584,-4.72473 -40.81836,-9.85034 -64.67133,-14.8407c-23.85293,-4.99033 -49.5086,-9.84048 -75.38914,-14.20929c-25.88049,-4.3688 -51.98587,-8.25626 -76.62958,-11.55292c-24.64371,-3.29669 -47.82342,-6.0075 -67.76121,-8.21798c-19.93778,-2.21045 -36.629,-3.93036 -48.25611,-5.32965c-11.62712,-1.39927 -18.18321,-2.49265 -17.89749,-3.35035c0.36,-1.08072 7.3945,-1.68786 19.37105,-1.81372c11.97655,-0.12588 28.88833,0.24408 48.95614,1.21735c20.06781,0.97327 43.28711,2.55951 67.91703,4.78461c24.62991,2.22506 50.66812,5.09378 76.46296,8.4418c25.7949,3.34799 51.34638,7.17529 75.10874,11.09167c23.76236,3.91642 45.73785,7.91703 64.46918,11.42313c18.73135,3.5061 34.22314,6.50793 45.05481,8.34821c10.83166,1.8403 17.01013,2.50442 17.06591,1.43957c0.06861,-1.30969 -6.08172,-4.06937 -16.95532,-7.7663c-10.87353,-3.69693 -26.47717,-8.31658 -45.35889,-13.25305c-18.88174,-4.93646 -41.04605,-10.18005 -64.99945,-15.21362c-23.95343,-5.03357 -49.69806,-9.85233 -75.64813,-14.13599c-25.95,-4.28366 -52.1053,-8.03238 -76.77119,-11.15768c-24.6659,-3.12534 -47.84006,-5.63226 -67.73719,-7.6254c-19.89711,-1.99316 -36.51257,-3.48248 -48.02316,-4.65353c-11.51057,-1.17105 -17.90932,-2.03864 -17.42213,-2.68363c1.30447,-1.72699 14.19128,-2.49487 32.58331,-2.47494c9.19601,0.00998 19.76581,0.22226 30.95509,0.60409c11.1893,0.38184 22.99765,0.93409 34.68872,1.58579c23.38208,1.30341 46.27793,3.04092 63.03095,4.14459c16.75302,1.10367 27.39346,1.50907 26.33685,-0.005c-1.41775,-2.03183 -10.78875,-4.66223 -24.11966,-7.29703c-13.33093,-2.63477 -30.63467,-5.24643 -47.84338,-7.39966c-17.20871,-2.15323 -34.32138,-3.85022 -47.10634,-5.00482c-12.78499,-1.15457 -21.22734,-1.79859 -21.05119,-1.94025c0.70141,-0.56402 8.44485,-0.52716 19.42946,-0.18622c10.98459,0.34092 25.20015,1.00763 38.89512,1.59815c13.69498,0.59054 26.87104,1.10132 35.88962,0.88952c9.01856,-0.21179 13.89313,-1.17498 10.98431,-3.53067c-3.57492,-2.89514 -11.11407,-5.46228 -20.44781,-7.60794c-9.33374,-2.14566 -20.46472,-3.86413 -31.18341,-5.14697c-10.71869,-1.28287 -21.02408,-2.13229 -28.65433,-2.65131c-7.63026,-0.51901 -12.58061,-0.7178 -12.58061,-0.7178l-0.00002,0.00015l0,0.00001zm27.28521,293.36962c0,0 -2.99475,-1.07885 -7.73449,-2.31268c-4.73976,-1.23382 -11.25255,-2.56293 -18.2049,-3.24188c-3.47618,-0.33942 -7.05807,-0.52527 -10.54983,-0.52643c-3.49176,-0.00104 -6.89307,0.18158 -9.98961,0.53992c-6.19309,0.71667 -11.16143,2.12353 -13.11653,3.99603c-1.20844,1.15735 -1.16939,2.16657 -0.1839,3.07379c0.98549,0.90723 2.91513,1.71747 5.46473,2.52613c2.54964,0.80871 5.71766,1.61932 9.18587,2.51458c3.46822,0.89533 7.23575,1.87726 11.00873,2.97675c3.77296,1.09949 7.55122,2.31683 11.07289,3.61493c3.52167,1.29803 6.78731,2.67554 9.56401,4.03345c5.55342,2.71588 9.16345,5.32721 9.06397,6.83496c-0.06662,1.00921 -1.74121,1.24072 -4.67377,0.98602c-2.93254,-0.2547 -7.12964,-0.98144 -12.29344,-1.77722c-5.16381,-0.79584 -11.29875,-1.65119 -18.07633,-2.22852c-6.77758,-0.57733 -14.20004,-0.87176 -21.85766,-0.71893c-7.65761,0.15283 -15.55048,0.75317 -23.16971,1.75421c-7.61925,1.00098 -14.96278,2.39819 -21.43716,3.96436c-6.47438,1.56622 -12.07535,3.29235 -16.17197,4.87127c-4.09662,1.57892 -6.68248,2.99701 -7.16873,4.03687c-0.58977,1.26117 0.96482,1.87817 4.08346,2.10614c3.11865,0.22802 7.7955,0.0794 13.41052,-0.10578c5.61501,-0.18512 12.1643,-0.39862 19.06078,-0.37085c6.89648,0.02784 14.13826,0.30103 21.21491,0.92578c7.07666,0.62476 13.98819,1.60108 20.31541,2.8407c6.32722,1.23963 12.0721,2.73834 16.89204,4.24463c4.81993,1.50623 8.71885,3.01166 11.38712,4.1944c2.66827,1.18274 4.11172,2.03033 3.98099,2.30578c-0.23571,0.49646 -1.89405,0.36634 -4.66037,-0.14239c-2.76632,-0.50873 -6.64566,-1.38526 -11.35749,-2.30884c-4.71183,-0.92352 -10.25953,-1.8869 -16.33346,-2.63129c-6.07393,-0.74438 -12.67577,-1.26623 -19.429,-1.4494c-6.75324,-0.1831 -13.65783,-0.02759 -20.25809,0.41406c-6.60025,0.44165 -12.89446,1.16565 -18.36092,1.9787c-5.46644,0.81305 -10.1017,1.70789 -13.35676,2.43293c-3.25508,0.72503 -5.12483,1.2694 -5.09709,1.45996c0.0563,0.38672 2.19384,0.30926 5.82988,0.00903c3.636,-0.30041 8.76449,-0.81091 14.76571,-1.21161c6.00122,-0.40069 12.87117,-0.6831 20.02787,-0.6076c7.15672,0.0755 14.5982,0.51294 21.82463,1.37677c7.22641,0.86389 14.23784,2.15399 20.63073,3.72943c6.39289,1.57538 12.16935,3.43164 17.00603,5.25677c4.83669,1.82507 8.73773,3.61035 11.41365,4.9715c2.67594,1.36114 4.13288,2.28522 4.03859,2.47925c-0.20117,0.41394 -1.95749,0.00195 -4.93372,-0.90961c-2.97622,-0.91174 -7.17887,-2.30975 -12.31637,-3.77521c-5.1375,-1.46539 -11.21417,-2.98901 -17.90112,-4.23181c-6.68696,-1.24274 -13.9863,-2.20007 -21.4834,-2.7157c-7.4971,-0.51556 -15.19191,-0.58948 -22.56835,-0.28167c-7.37642,0.30779 -14.43225,0.99261 -20.56691,1.81433c-6.13466,0.82177 -11.34375,1.77111 -14.99186,2.53369c-3.64812,0.76263 -5.72869,1.32446 -5.65378,1.47253c0.16778,0.33167 2.86073,0.10852 7.35396,-0.3418c4.49324,-0.45037 10.77789,-1.10913 18.07516,-1.53375c7.29729,-0.42468 15.6013,-0.60272 24.1897,-0.21197c8.58839,0.39068 17.45827,1.35632 26.00925,2.95892c8.55098,1.60266 16.78317,3.84204 24.23901,6.47577c7.45584,2.63373 14.13843,5.65527 19.70904,8.56873c5.57064,2.91351 10.03536,5.70599 13.10564,7.7749c3.07028,2.06885 4.75513,3.39477 4.70264,3.51019c-0.15399,0.33856 -1.81424,-0.44244 -4.66178,-1.92688c-2.8475,-1.48444 -6.88943,-3.65698 -11.85385,-6.00098c-4.96441,-2.34399 -10.85606,-4.84936 -17.36126,-7.08838c-6.50522,-2.23901 -13.6263,-4.20678 -20.95524,-5.67681c-7.32894,-1.47004 -14.86563,-2.44251 -22.09132,-2.92701c-7.22569,-0.48443 -14.13786,-0.48626 -20.12703,-0.20849c-5.98916,0.27783 -11.05038,0.8247 -14.53966,1.36413c-3.48927,0.53943 -5.39921,1.05567 -5.14383,1.39576c0.40409,0.5382 2.36612,0.85394 5.43969,1.10388c3.07353,0.24994 7.25489,0.44201 12.08096,0.76843c4.82606,0.32648 10.2944,0.79248 15.97096,1.52838c5.67656,0.7359 11.5602,1.74414 17.27257,3.03626c5.71239,1.29205 11.25365,2.86779 16.30876,4.60363c5.05513,1.73584 9.62554,3.62879 13.44802,5.44495c3.82251,1.81616 6.89978,3.54974 8.98989,4.92157c2.09014,1.37177 3.19709,2.37329 3.05054,2.78583c-0.4581,1.28955 -3.77548,0.70117 -8.17547,-0.34332c-2.2,-0.52222 -4.67229,-1.15503 -7.18049,-1.7511c-2.50819,-0.59607 -5.05233,-1.15534 -7.37356,-1.57849c-4.64247,-0.84632 -8.39015,-1.15485 -9.0332,-0.42713c-0.32154,0.36383 0.13481,0.98309 1.61048,1.99408c1.47567,1.01105 3.97405,2.40674 7.65981,4.48712c4.93137,2.78345 8.85239,5.36371 12.01211,7.59143c3.15972,2.22773 5.55662,4.10614 7.3834,5.60596c1.82676,1.49976 3.08223,2.62348 3.92335,3.41797c0.84111,0.7945 1.26697,1.26178 1.41499,1.4903c0.29604,0.45703 -0.52105,-0.03699 -1.41801,-0.63282c-0.89696,-0.59576 -1.87546,-1.28973 -1.87546,-1.28973c0,0 -0.18527,-0.26642 -0.72671,-0.87055c-0.54146,-0.60418 -1.43811,-1.54821 -2.8768,-2.86962c-1.43869,-1.32142 -3.41805,-3.02308 -6.15812,-5.07178c-2.74006,-2.04865 -6.23909,-4.448 -10.77336,-7.04486c-3.50891,-2.00959 -5.87091,-3.35919 -7.24891,-4.33203c-1.37801,-0.97284 -1.77515,-1.56226 -1.42549,-1.89972c0.69928,-0.67499 4.37889,-0.32764 8.91297,0.52954c2.26705,0.42859 4.74714,0.9859 7.19136,1.57202c2.44423,0.58606 4.85267,1.20081 6.99769,1.69897c4.28997,0.99628 7.53259,1.5127 8.01306,0.1604c0.32281,-0.90856 -0.67215,-2.3764 -2.70195,-4.16577c-2.0298,-1.78943 -5.09873,-3.89123 -8.95204,-6.00769c-3.85332,-2.11639 -8.49389,-4.24133 -13.64174,-6.13067c-5.14786,-1.88935 -10.80443,-3.5401 -16.63234,-4.83057c-5.82791,-1.29053 -11.82717,-2.22076 -17.5922,-2.81445c-5.76501,-0.59369 -11.29437,-0.85394 -16.12486,-0.92731c-4.83047,-0.07342 -8.95924,0.034 -11.89726,0.12055c-2.93801,0.08648 -4.68103,0.14318 -4.7675,0.02679c-0.23462,-0.31567 1.68438,-0.79962 5.17315,-1.30023c3.48879,-0.50061 8.54003,-1.00238 14.5128,-1.23206c5.97278,-0.22973 12.8622,-0.17688 20.06218,0.3573c7.19999,0.53424 14.708,1.55524 22.00858,3.06873c7.30058,1.51355 14.3936,3.51983 20.87387,5.78961c6.48026,2.26971 12.35005,4.79803 17.2981,7.15533c4.94801,2.3573 8.97899,4.53357 11.82304,6.01099c2.84402,1.47736 4.50827,2.24066 4.67578,1.87231c0.26898,-0.59137 -1.25577,-2.37127 -4.21384,-4.85266c-2.95806,-2.48138 -7.35888,-5.6441 -12.90648,-8.86383c-5.54759,-3.21973 -12.24824,-6.48303 -19.75174,-9.28119c-7.50351,-2.79815 -15.813,-5.12445 -24.45306,-6.73712c-8.64006,-1.61261 -17.61066,-2.51166 -26.28772,-2.77216c-8.67706,-0.26055 -17.05739,0.1106 -24.39238,0.77283c-7.33498,0.66223 -13.61828,1.60199 -18.04841,2.36603c-4.43013,0.7641 -6.99761,1.33203 -6.96737,1.39239c-0.06219,-0.12414 2.02134,-0.65435 5.66475,-1.37933c3.64342,-0.72497 8.84015,-1.63074 14.95746,-2.40631c6.11731,-0.77557 13.15085,-1.41162 20.5029,-1.67175c7.35205,-0.2602 15.0204,-0.13971 22.49171,0.41784c7.4713,0.55762 14.74552,1.55243 21.41039,2.82544c6.6649,1.27301 12.72258,2.81971 17.84625,4.29889c5.12367,1.47925 9.3176,2.88184 12.29213,3.78748c2.97455,0.90564 4.73616,1.30054 4.95157,0.85724c0.32233,-0.66321 -0.9572,-2.0213 -3.49902,-3.77051c-2.54183,-1.74915 -6.3523,-3.87579 -11.13556,-5.98291c-4.78327,-2.10718 -10.54357,-4.18573 -16.94901,-5.91559c-6.40544,-1.72986 -13.45816,-3.10638 -20.74247,-3.9881c-7.28432,-0.88171 -14.80024,-1.26861 -22.03238,-1.23162c-7.23213,0.03698 -14.17838,0.49328 -20.2396,1.11938c-6.06123,0.62616 -11.2332,1.41303 -14.88093,2.03473c-3.64774,0.6217 -5.76488,1.06464 -5.76032,1.09644c-0.02369,-0.16498 1.84319,-0.67756 5.09008,-1.36646c3.2469,-0.68896 7.86869,-1.5434 13.31842,-2.31451c5.44972,-0.77112 11.72393,-1.45154 18.30311,-1.85102c6.57916,-0.39947 13.46156,-0.51422 20.19354,-0.29443c6.732,0.21973 13.31354,0.77411 19.37001,1.54443c6.05646,0.77039 11.58951,1.75324 16.29119,2.68781c4.70167,0.93457 8.57533,1.81366 11.34202,2.31488c2.76667,0.50122 4.4314,0.61371 4.68106,0.08783c0.3546,-0.74695 -0.8889,-2.01679 -3.382,-3.57013c-2.49312,-1.55341 -6.24167,-3.37781 -10.93709,-5.14893c-4.6954,-1.77111 -10.34157,-3.48059 -16.59697,-4.87426c-6.25538,-1.39368 -13.12193,-2.46741 -20.18147,-3.1305c-7.05954,-0.66302 -14.31206,-0.91534 -21.24812,-0.86072c-6.93607,0.05457 -13.55376,0.41199 -19.26693,0.80494c-5.71318,0.39294 -10.51794,0.81311 -13.79516,0.92279c-3.27721,0.10968 -5.02104,-0.10346 -4.65209,-0.89246c0.47246,-1.01037 3.04352,-2.39319 7.1247,-3.93317c4.08118,-1.54003 9.66606,-3.22363 16.12402,-4.74566c6.45796,-1.52204 13.78478,-2.87348 21.38739,-3.82947c7.60263,-0.95599 15.47901,-1.51209 23.12088,-1.62408c7.64189,-0.11194 15.04938,0.21984 21.81355,0.828c6.76418,0.60815 12.88733,1.48773 18.04178,2.29797c5.15445,0.81018 9.34468,1.54151 12.27359,1.78791c2.92891,0.24639 4.6032,-0.00599 4.67305,-1.05176c0.17392,-2.60279 -3.17099,-5.95838 -8.41711,-9.1435c-2.62305,-1.59259 -5.72353,-3.138 -9.08641,-4.54821c-3.36287,-1.41028 -6.98859,-2.68433 -10.63603,-3.7898c-3.64745,-1.10547 -7.31647,-2.04266 -10.73738,-2.83997c-3.42092,-0.79736 -6.59301,-1.45642 -9.22449,-2.05273c-2.63149,-0.59625 -4.72107,-1.13263 -5.97049,-1.69836c-1.24942,-0.56574 -1.65676,-1.16498 -0.94182,-1.84858c1.89102,-1.8081 6.75229,-3.16394 12.82645,-3.85217c6.07414,-0.68823 13.33804,-0.65961 20.17482,0.00202c6.83677,0.66131 13.24838,1.95117 17.91696,3.14776c4.66856,1.19666 7.6212,2.24237 7.6212,2.24237l0,-0.00042l0,-0.00001zm183.84127,69.59784c0,0 1.88983,-0.7442 4.62402,-1.64611c2.73419,-0.90198 6.29138,-1.91596 9.70105,-2.61561c3.4097,-0.69958 6.67191,-1.08483 9.05222,-1.2323c2.38031,-0.14746 3.90014,-0.10284 3.90014,-0.10284c0,0 -1.51983,-0.04462 -3.90014,0.10284c-2.38031,0.14747 -5.64252,0.53272 -9.05222,1.2323c-3.40967,0.69965 -6.96686,1.71363 -9.70105,2.61561c-2.73419,0.90191 -4.62402,1.64611 -4.62402,1.64611zm35.64346,-4.7677c0,0 0.57495,0.13575 1.55459,0.43335c0.97959,0.29767 2.36115,0.76307 3.95502,1.46357c1.59387,0.7005 3.39823,1.64001 5.23859,2.85363c1.84033,1.21363 3.71576,2.70343 5.48773,4.4278c1.77194,1.7243 3.44043,3.68329 4.91016,5.74304c1.46978,2.05969 2.74176,4.21832 3.75781,6.26288c1.01599,2.04456 1.77786,3.97119 2.24478,5.53003c0.46695,1.55878 0.64163,2.74402 0.46744,3.33966c-0.25257,0.86352 -1.09571,0.43317 -2.4516,-0.80335c-1.35587,-1.23651 -3.23425,-3.25811 -5.62537,-5.432c-2.39111,-2.17395 -5.30142,-4.48627 -8.66647,-6.42047c-3.36508,-1.93421 -7.18802,-3.48365 -11.2782,-4.40082c-4.09018,-0.91718 -8.44735,-1.20264 -12.7341,-0.92182c-4.2868,0.28083 -8.49942,1.12006 -12.18423,2.20423c-3.68482,1.08417 -6.83457,2.39807 -8.96057,3.55353c-2.12598,1.15545 -3.21769,2.13 -2.88358,2.74304c0.84619,1.55267 4.57593,1.83038 9.23645,2.30035c2.33026,0.23505 4.89276,0.51905 7.47638,0.96527c2.58362,0.44629 5.18774,1.05591 7.64673,1.84534c2.45892,0.78943 4.77301,1.75781 6.82348,2.82147c2.05054,1.0636 3.83869,2.21979 5.28071,3.31012c1.44201,1.09027 2.54007,2.11011 3.21985,2.88092c0.6798,0.77081 0.94439,1.28607 0.68988,1.43036c-0.95948,0.54382 -2.31,0.47992 -3.80561,0.28156c-1.49563,-0.19837 -3.13983,-0.52369 -4.62109,-0.64258c-1.48117,-0.11896 -2.79502,-0.04096 -3.57074,0.44159c-0.77573,0.48242 -1.00104,1.34302 -0.37149,2.93023c0.44183,1.11371 0.44073,1.94544 0.11459,2.51679c-0.32617,0.57141 -0.97943,0.8869 -1.87427,1.03717c-1.78964,0.30054 -4.56262,-0.02362 -7.63745,-0.24091c-1.53741,-0.1087 -3.1474,-0.1969 -4.71722,-0.23187c-1.56982,-0.03503 -3.09924,-0.01733 -4.45483,0.04157c-2.71122,0.11785 -4.71897,0.3833 -4.8772,0.53717c-0.63019,0.61279 0.20123,0.9776 1.75006,1.29248c1.54889,0.31488 3.79895,0.61462 6.03217,1.0415c2.23327,0.42688 4.44866,0.98309 6.08456,1.47784c1.63586,0.49475 2.70651,0.89759 2.70651,0.89759c0,0 -1.0289,-0.36908 -2.59247,-0.82923c-1.56356,-0.46014 -3.67486,-0.98358 -5.78759,-1.4035c-2.1128,-0.41998 -4.22587,-0.73871 -5.65107,-1.09204c-1.42517,-0.35333 -2.14734,-0.77362 -1.45782,-1.43988c1.15893,-1.11994 3.44204,-2.01904 6.08282,-2.55579c2.64081,-0.53668 5.62592,-0.68261 8.30722,-0.54834c2.68131,0.13422 5.06314,0.53931 6.68308,0.7085c1.61996,0.16919 2.50012,0.05542 2.16549,-0.82129c-0.58328,-1.52832 -0.3543,-2.34143 0.40189,-2.78204c0.75617,-0.44068 2.02832,-0.48474 3.47052,-0.34565c1.44229,0.1391 3.05054,0.47028 4.534,0.66285c1.48355,0.19256 2.84533,0.24005 3.85772,-0.32264c0.72977,-0.40557 0.82267,-1.21307 0.41401,-2.30371c-0.40863,-1.09063 -1.32319,-2.45501 -2.65592,-3.8728c-1.33264,-1.41779 -3.08652,-2.88245 -5.16565,-4.19086c-2.07919,-1.30835 -4.48535,-2.45684 -7.07846,-3.33642c-2.59314,-0.87964 -5.37365,-1.4895 -8.14108,-1.84943c-2.76743,-0.35986 -5.52094,-0.47174 -8.00317,-0.47644c-2.48227,-0.005 -4.69117,0.09308 -6.33603,0.08136c-1.6449,-0.01166 -2.72223,-0.1405 -2.9513,-0.57727c-0.31653,-0.60352 0.77719,-1.54541 2.89215,-2.6488c2.11493,-1.10346 5.24063,-2.34601 8.89234,-3.34662c3.65173,-1.00061 7.82232,-1.7442 12.06286,-1.9256c4.24045,-0.18146 8.54715,0.20709 12.58722,1.22259c4.04016,1.01551 7.81345,2.65857 11.13352,4.67432c3.32,2.01575 6.18997,4.39758 8.54888,6.62286c2.35892,2.22535 4.21329,4.28034 5.55625,5.52747c1.34296,1.24713 2.18432,1.66534 2.44882,0.76288c0.34335,-1.17139 0.29227,-2.8169 -0.09137,-4.73273c-0.38364,-1.91577 -1.10245,-4.09637 -2.10794,-6.30945c-1.00546,-2.21313 -2.29938,-4.45514 -3.81396,-6.53473c-1.51462,-2.07952 -3.2508,-3.99487 -5.1027,-5.63604c-1.85189,-1.64118 -3.81936,-3.00843 -5.75281,-4.08521c-1.9335,-1.07672 -3.8319,-1.86511 -5.50964,-2.42541c-1.6777,-0.56024 -3.13284,-0.89636 -4.16492,-1.10016c-1.03213,-0.20374 -1.63839,-0.28095 -1.63839,-0.28095l0.00003,-0.00006z" stroke-miterlimit="4" stroke-linejoin="round" stroke-linecap="round" stroke="#ff1650" fill="#ffaad4"/>
   <text xml:space="preserve" x="8.245021" y="465.844821" id="text3690" font-family="Purisa" stroke="#ff1650" fill="#009100" font-weight="normal" font-style="normal" font-size="40px">
    <tspan id="tspan3692" x="137.48228" y="737.53461" stroke="#ff1650">I&#x27;m green for you!</tspan>
   </text>
  </g>
 </g>
</svg>